<svg width="32" height="36" viewBox="0 0 32 36" fill="none" xmlns="http://www.w3.org/2000/svg">
<g clip-path="url(#clip0_3_2)">
<path d="M30.5211 23.6266C30.3433 24.9945 30.0004 26.541 29.6968 27.8986C29.3995 29.2285 28.4453 30.225 27.9721 31.2895C27.5122 32.324 24.97 34.21 22.3954 34.4696C21.4442 34.5656 20.3454 34.4491 19.4053 34.5078C18.609 34.5575 17.8125 34.607 17.0178 34.6777C16.9351 34.685 16.858 34.6888 16.785 34.6888C16.4693 34.6888 16.2454 34.618 16.1012 34.4732C15.9282 34.299 15.8496 34.0056 15.8529 33.5495C15.8573 32.9619 15.7564 30.8589 15.7564 30.8589C15.7708 30.2457 15.7705 29.6321 15.7766 29.0186C15.7774 28.9511 15.7807 28.8837 15.779 28.8162C15.7751 28.6963 15.7676 28.5763 15.7625 28.4563C15.7489 28.1273 15.7348 27.798 15.7162 27.4681C15.6982 27.1501 15.6794 26.8319 15.6636 26.5139V23.9495C15.6659 23.9103 15.6678 23.871 15.6695 23.8315C15.7688 22.8103 15.6714 21.8023 15.6941 20.7949L15.7076 20.7981C15.7712 20.6684 15.8857 20.5144 16.0155 20.4707C16.26 20.3877 16.5163 20.3251 16.7642 20.2645C16.9657 20.2153 17.1743 20.1644 17.3757 20.103C17.68 20.0097 17.9815 19.9078 18.2832 19.8055C18.5927 19.7005 18.9119 19.5945 19.2306 19.498C19.528 19.4148 19.8253 19.3332 20.1224 19.2496C20.3147 19.1995 20.5072 19.1507 20.6966 19.1033C20.9857 19.0306 21.2749 18.958 21.5626 18.8807C21.8468 18.8043 22.1325 18.715 22.4092 18.6287L22.6808 18.5442C22.794 18.5094 22.9071 18.4723 23.0194 18.4351C23.0557 18.4231 23.0929 18.4117 23.1297 18.3998C23.3165 18.347 23.5033 18.294 23.69 18.2415C23.7255 18.2317 23.7562 18.2227 23.7901 18.2131C24.9267 17.8895 25.2409 17.6956 25.2976 16.8835C25.3084 16.7274 25.3106 16.5485 25.3066 16.3414C25.3051 16.2681 25.3034 16.1931 25.3008 16.1125C25.2455 14.3542 25.2586 13.783 24.1793 13.5693C23.8998 13.5143 23.5512 13.4816 23.1043 13.4603C23.0977 13.4601 23.0908 13.4593 23.0838 13.4588C23.0341 13.4537 22.9848 13.4495 22.9353 13.4441C21.9347 13.3324 20.9234 13.2754 19.9236 13.1535C19.5129 13.1034 19.1137 12.9928 18.7036 12.9383C18.1908 12.8703 17.6758 12.8585 17.162 12.799C16.6165 12.7357 16.0724 12.6228 15.5263 12.5659C14.988 12.5101 14.4857 12.5065 13.9486 12.4445C13.7954 12.4269 13.6486 12.316 13.5926 12.223C13.5382 12.1335 13.5373 12.0138 13.5904 11.8772C13.6675 11.6787 13.7531 11.4832 13.8396 11.2877C13.9655 11.0013 14.0964 10.7053 14.1936 10.4035C14.299 10.0764 14.2943 9.9526 14.3591 9.62114C14.3875 9.47565 14.5397 9.13451 14.5076 8.95144C14.5101 8.82679 14.3176 8.80283 14.2288 8.7872C14.0644 8.7587 13.9547 8.72283 13.8324 8.72491C13.4079 8.73183 12.7701 8.52316 12.4895 8.52316C12.0191 8.52316 12.0653 8.77395 11.7811 9.16488C11.7533 9.20283 11.6947 9.1936 11.681 9.14828C11.4601 8.43059 11.3936 8.42084 10.4481 8.37968L10.3444 8.37611C10.1591 8.37046 9.9677 8.36502 9.81559 8.29038C9.60491 8.18724 9.44246 8.13753 9.31862 8.13753C9.22426 8.13753 9.15178 8.16536 9.09656 8.22363C9.00115 8.32461 8.9632 8.519 8.97927 8.81905C9.00606 9.2928 9.06835 9.7725 9.12915 10.2363C9.15408 10.4224 9.17812 10.6087 9.20052 10.7952C9.20469 10.8318 9.22091 10.8659 9.23654 10.8995L9.25388 10.9391C9.25388 10.9391 9.63699 11.7002 9.60848 11.7699C9.58035 11.8396 9.15952 11.7439 8.95382 11.7354C8.5146 11.7174 8.13492 11.7017 7.76804 11.6178C7.65172 11.5911 7.5424 11.5775 7.44253 11.5775C7.00755 11.5775 6.76656 11.8326 6.7633 12.2953C6.76141 12.5281 6.76214 12.7606 6.76269 12.9934L6.7633 13.255C6.7633 13.9628 6.93112 14.1397 7.6602 14.2008C8.06512 14.2346 8.46891 14.3006 8.89652 14.3701C9.0819 14.3999 9.27189 14.4297 9.45994 14.4438C9.47304 14.4455 9.41217 14.3413 9.49842 14.4497C9.58549 14.5583 9.42125 14.6849 9.3792 14.798C9.29072 15.0386 9.20744 15.2656 9.20268 15.497C9.161 17.4316 9.08852 19.4899 8.70571 21.5131C8.5722 22.2198 8.54802 22.9584 8.52428 23.6728C8.51327 24.0051 8.50218 24.3371 8.48082 24.6672L8.40595 25.7961C8.40566 25.802 8.40528 25.8083 8.40499 25.8144C8.36331 26.4343 8.32238 27.0536 8.28301 27.6738C8.26463 27.9605 8.2557 28.2463 8.24714 28.5322C8.22579 29.2214 8.20353 29.9339 8.04324 30.6439C7.99293 30.8667 7.95728 31.094 7.92833 31.3226C7.90311 31.6273 7.8781 31.9318 7.85161 32.2364C7.85161 32.2364 7.68536 32.9965 7.66876 33.1768C7.62381 33.6721 7.50393 33.7715 7.32503 33.7715C7.21856 33.7715 7.0769 33.7324 6.9041 33.6551C6.41886 33.4381 5.91973 33.2519 5.51206 32.9946C4.39635 32.2892 3.62273 31.3776 3.07091 30.346C2.82392 29.8838 2.71804 29.1967 2.58023 28.6649C2.4079 28.0015 2.16537 27.5275 2.02541 26.861C1.77424 25.6676 1.52063 24.5791 1.37276 23.3776C1.25235 22.3959 1.22027 21.3019 1.16833 20.316C1.07844 18.6029 1.29306 16.9575 1.41116 15.2357C1.50193 13.9155 1.45374 12.5206 1.66678 11.1982C1.79064 10.4298 2.05087 9.75903 2.21601 8.99044C2.33526 8.43661 2.34964 7.78515 2.49033 7.23144C2.69057 6.44152 3.1201 5.71257 3.50016 5.08229C4.03428 4.19719 4.60479 3.48996 5.47437 2.9372C6.34425 2.3837 7.39553 2.04476 8.57823 1.84487C9.65976 1.6621 10.7626 1.35465 11.8363 1.25097C13.2287 1.11652 14.5685 1.16973 15.9267 1.16973C17.0016 1.16973 17.8985 1.33913 18.9653 1.42325C19.7459 1.48537 20.6997 1.4428 21.4716 1.54908C22.1636 1.64499 22.9209 1.65606 23.6028 1.78735C24.3333 1.92813 24.9334 2.24133 25.5401 2.52204C26.1474 2.8026 26.5508 3.28418 27.0329 3.70308C27.3977 4.02003 27.8677 4.24421 28.1602 4.63952C28.5313 5.14111 28.8445 5.70597 29.0987 6.33308C29.2996 6.82779 29.6081 7.32588 29.7351 7.89849C29.831 8.3302 29.7768 8.79769 29.8604 9.22954C30.1146 10.5426 30.1925 11.8755 30.4506 13.172C30.7699 14.7761 30.5217 16.0237 30.5399 17.4197C30.5682 19.5525 30.796 21.5075 30.5211 23.6266ZM31.6208 13.3153C31.4509 12.319 31.4791 11.3469 31.1918 10.3032C30.9177 9.3053 30.981 8.32015 30.5415 7.25099C29.9231 5.74608 29.43 4.49414 28.5469 3.3965C27.838 2.51556 26.9564 1.78736 25.617 1.31539C25.0251 1.10689 24.5991 0.810508 23.7424 0.764636C22.7839 0.713725 21.8436 0.459916 20.888 0.316977C19.0609 0.0440406 17.608 0.131761 15.9626 0.0217522C14.5767 -0.0707124 13.5631 0.160519 12.3425 0.176769C10.8016 0.197476 9.90281 0.434176 8.68138 0.638808C7.86761 0.775129 7.17931 0.75299 6.42637 1.24407C5.57622 1.79842 4.68894 2.147 3.94135 2.71056C2.75257 3.60746 2.19831 4.64369 1.67642 5.95876C1.47417 6.46828 1.30716 7.01215 1.17553 7.59077C0.928826 8.67461 0.883661 9.79617 0.551509 10.8402C0.146425 12.113 0.373421 13.1181 0.280493 14.2205C0.138081 15.9093 0.061121 17.5256 0.0080401 19.2028C-0.0453286 20.8871 0.176778 22.3342 0.384786 23.8884C0.603583 25.5257 0.587184 27.0942 1.31579 28.7701C1.63902 29.5127 1.93521 30.3082 2.29268 30.9638C2.85082 31.9871 3.45787 32.819 4.40542 33.5178C5.13229 34.0538 5.97281 34.4934 6.92512 34.8342C7.24732 34.9499 7.81626 34.9546 7.81626 34.9546C8.39181 35.0019 8.58701 34.6537 8.67862 33.691C8.69403 33.5309 8.70541 33.3706 8.72007 33.2107C8.72253 33.1861 8.88432 31.7019 8.97072 30.974C9.0371 30.4179 9.10512 29.8431 9.15795 29.2766C9.18913 28.9442 9.1936 28.6041 9.19777 28.2751C9.20238 27.9583 9.20655 27.6309 9.23475 27.3111C9.26943 26.9182 9.3286 26.5203 9.38582 26.1359C9.43174 25.8269 9.47758 25.5177 9.51226 25.2075C9.56778 24.708 9.60819 24.1988 9.64718 23.7062C9.6646 23.4914 9.68127 23.2769 9.69972 23.0623L9.7059 22.9976C9.71021 22.952 9.71498 22.9069 9.71706 22.861C9.73983 22.3555 9.74928 21.8391 9.75836 21.34C9.77942 20.1848 9.80093 18.9904 9.991 17.8439C10.0915 17.2391 10.1229 16.6256 10.1534 16.0317C10.1846 15.4209 10.217 14.7895 10.3248 14.1746C10.3507 14.0275 10.3143 13.8873 10.2203 13.7686C10.0737 13.584 9.79795 13.4681 9.46277 13.4498C9.2902 13.4405 9.11643 13.4405 8.94244 13.4402C8.81295 13.4399 8.68353 13.4396 8.55397 13.4358C8.15412 13.4231 7.94754 13.3974 7.85548 13.2835C7.76618 13.1723 7.78329 12.9754 7.83613 12.6157L8.31546 12.6567L10.1238 12.7968C10.2454 12.8071 10.4412 12.885 10.5046 12.8262C10.5677 12.7678 10.4352 12.3072 10.4352 12.3072C10.3818 11.9066 10.3342 11.551 10.2895 11.1946C10.2794 11.112 10.2736 11.0278 10.2681 10.9441C10.2587 10.8116 10.2499 10.6748 10.2206 10.544C10.1982 10.4417 10.1591 10.3413 10.1214 10.2445C10.0755 10.1267 10.0281 10.0048 10.0118 9.88153C9.98988 9.72368 10.0057 9.55699 10.0209 9.39572C10.0269 9.33321 9.97723 9.22895 10.0219 9.19226C10.0671 9.1552 10.1552 9.24391 10.225 9.2672C10.3801 9.31885 10.5405 9.37221 10.6183 9.47877C10.7715 9.68886 10.8313 9.97381 10.8882 10.2492L10.8941 10.2761C10.9626 10.6056 11.0141 10.943 11.0639 11.2689C11.0812 11.3817 11.0982 11.4937 11.1225 11.6118C11.1327 11.663 11.1764 11.7035 11.2281 11.7119C11.3872 11.7376 11.5036 11.752 11.5999 11.752C11.9274 11.752 11.9999 11.5734 12.1597 11.0571C12.2604 10.7344 12.368 10.4138 12.4778 10.0868L12.5782 9.76015C12.5962 9.70203 12.6495 9.66199 12.7107 9.66043L13.159 9.62471C13.3207 9.60886 13.446 9.55669 13.4297 9.64785C13.3656 9.84342 13.3415 10.0263 13.243 10.2268C13.0267 10.667 12.9523 11.1353 12.792 11.5763C12.7253 11.7592 12.6303 11.9356 12.5386 12.1061C12.4789 12.2167 12.4196 12.3268 12.3671 12.4397C12.2922 12.6 12.2922 12.7694 12.3662 12.9044C12.4406 13.039 12.5779 13.1256 12.753 13.1478C13.318 13.2196 13.8838 13.2838 14.4504 13.3482C14.8663 13.3952 15.3069 13.4303 15.7223 13.4803C16.3638 13.558 16.9735 13.7112 17.6144 13.7933L18.438 13.84C18.5091 13.8439 18.5802 13.8516 18.6508 13.8627L19.5063 14.0089C20.037 14.1007 20.4512 14.1229 20.852 14.1402C21.3579 14.219 21.8151 14.2528 22.206 14.2675C22.3024 14.2844 22.3981 14.3003 22.4908 14.308C22.9649 14.3482 23.4373 14.3509 23.9122 14.4249C24.1159 14.5453 24.2911 14.738 24.3965 15.0187C24.4609 15.1917 24.5027 15.3604 24.5273 15.5243C24.5326 15.7182 24.5326 15.9126 24.5276 16.1061C24.4394 16.6558 24.0917 17.1037 23.5239 17.3636C22.9848 17.4681 22.4487 17.5826 21.9288 17.7122C21.595 17.7954 21.2609 17.8991 20.9377 17.9992C20.7137 18.0686 20.4901 18.138 20.2647 18.2013C19.9863 18.2799 19.7037 18.3484 19.4212 18.417C18.8457 18.5572 18.2507 18.7018 17.7015 18.931C16.9459 19.2462 16.154 19.4159 15.388 19.5801L15.1363 19.634C14.9738 19.6694 14.8506 19.9568 14.7562 20.1773C14.7167 20.2695 14.7258 20.3825 14.7355 20.492C14.7394 20.5396 14.7433 20.5875 14.7433 20.6336V21.2039L14.7583 21.2051C14.7433 21.298 14.7338 21.39 14.7388 21.4808C14.7457 21.6115 14.7521 21.7418 14.7585 21.8724C14.8434 23.5382 14.6149 24.8144 14.7585 26.8676C14.7673 26.9928 14.7349 27.1181 14.7233 27.2436C14.7136 27.3437 14.7059 27.4438 14.6948 27.5442C14.6689 27.7734 14.6585 28.0045 14.6516 28.2359C14.6282 29.0582 14.6986 29.8911 14.707 30.7172C14.7172 31.7219 14.8374 34.2175 14.8386 34.2346C14.837 34.3263 14.8356 34.4182 14.8345 34.5099C14.8263 35.1685 15.0428 35.5275 15.5882 35.6333C15.5882 35.6333 16.6719 35.9384 22.4418 35.4102C24.4181 35.2294 26.3176 34.9741 27.2895 33.774C28.0296 32.8604 28.8727 32.5154 29.4692 31.4055C29.8827 30.6358 30.1314 29.7715 30.4876 28.8897C31.0574 27.4771 31.3447 26.0787 31.5751 24.3927C31.7465 23.1339 31.7171 21.8195 31.7923 20.5597C31.8688 19.2834 31.7281 18.2433 31.8526 16.7298C31.9272 15.8186 31.8996 14.952 31.6208 13.3153Z" fill="#24104F"/>
<path d="M14.9046 16.5877C15.2454 16.6105 15.775 16.0813 15.7922 15.7007C15.8132 15.2294 15.4736 14.8896 14.9754 14.8839C14.3485 14.8768 14.148 15.0535 14.1396 15.6211C14.1327 16.0828 14.5116 16.5614 14.9046 16.5877Z" fill="#24104F"/>
</g>
<defs>
<clipPath id="clip0_3_2">
<rect width="32" height="35.7209" fill="white"/>
</clipPath>
</defs>
</svg>
