<svg width="163" height="48" viewBox="0 0 163 48" fill="none" xmlns="http://www.w3.org/2000/svg">
<g clip-path="url(#clip0_19_237)">
<path d="M162.043 15.9409C161.392 15.5147 160.957 15.9623 160.547 16.4489C158.69 18.655 156.812 20.8445 154.956 23.0515C154.065 24.1093 153.978 24.1141 153.132 22.9417C151.593 20.8077 150.06 18.6693 148.507 16.5463C148.088 15.9745 147.545 15.4495 146.802 15.9607C146.007 16.5086 146.458 17.1847 146.842 17.7387C148.22 19.7259 149.546 21.759 151.062 23.6383C152.303 25.1766 153.113 26.7473 152.744 28.5484C152.792 29.6528 152.678 30.5507 152.915 31.427C153.047 31.9206 153.302 32.272 153.882 32.2453C154.406 32.2206 154.626 31.9111 154.685 31.4319C154.752 30.8869 154.924 30.3323 154.872 29.7988C154.619 27.24 155.56 25.2337 157.301 23.3775C159.005 21.5599 160.749 19.7423 162.096 17.6143C162.435 17.0777 162.795 16.4324 162.043 15.9409Z" fill="#24104F"/>
<path d="M120.085 17.8292C121.775 17.8573 123.474 17.6581 125.153 17.9596C128.553 18.5706 130.839 21.2167 130.708 24.35C130.586 27.2543 127.722 29.9607 124.461 30.153C122.858 30.2477 121.246 30.1604 119.638 30.1886C118.888 30.2017 118.552 29.8949 118.564 29.1371C118.586 27.8646 118.571 26.5919 118.571 25.32C118.663 23.4081 118.462 21.5075 118.389 19.6021C118.328 17.9903 118.533 17.803 120.085 17.8292ZM118.047 32.2629C119.148 32.3 120.251 32.2712 121.349 32.2712C124.693 32.6158 127.686 31.9783 130.335 29.6691C134.717 25.8485 133.063 18.4022 127.444 16.4295C124.265 15.3134 121.002 15.6614 117.749 15.8201C116.811 15.8653 116.425 16.4145 116.428 17.337C116.439 21.7568 116.448 26.1764 116.423 30.5965C116.417 31.7461 117.007 32.2288 118.047 32.2629Z" fill="#24104F"/>
<path d="M88.7503 30.1045C91.9625 33.0984 97.1637 33.1913 101.241 30.3974C102.193 29.7455 102.774 28.9142 102.828 27.7843C102.897 26.3421 102.9 24.8953 102.883 23.4503C102.874 22.6287 102.482 22.133 101.579 22.0348C99.0771 21.7624 96.5819 21.9692 94.0842 22.0563C93.5194 22.076 93.0522 22.3038 93.0278 22.9294C93.0026 23.5582 93.4502 23.7695 94.0126 23.8766C95.0681 24.0783 96.1294 23.9473 97.1857 24.0022C98.0346 24.0008 98.8834 23.9879 99.7314 24.0063C100.225 24.0167 100.637 24.1381 100.726 24.7579C101.137 27.6504 100.426 28.8784 97.6813 29.8998C97.2069 30.077 96.7104 30.2062 96.2132 30.3117C92.7568 31.0497 88.6608 28.3768 88.1961 25.0901C87.6736 21.3966 90.4708 18.1285 94.3601 17.8183C96.507 17.6473 98.5033 17.9116 100.232 19.3346C100.729 19.7443 101.349 19.89 101.851 19.3874C102.435 18.8046 101.938 18.276 101.578 17.8258C101.125 17.2581 100.562 16.7982 99.8649 16.5408C97.8482 15.7961 95.7696 15.3375 93.6293 15.7062C90.1729 16.3014 87.6508 18.2705 86.5692 21.5935C85.5349 24.7655 86.2169 27.7418 88.7503 30.1045Z" fill="#24104F"/>
<path d="M69.6934 28.7103C68.7596 29.6082 67.5928 29.9713 66.345 30.0447C65.2912 30.1077 64.2304 30.0578 63.173 30.0578V30.1077C62.0303 30.1077 60.8879 30.0996 59.7453 30.1106C58.981 30.1181 58.5505 29.8285 58.5601 28.9937C58.5752 27.5949 58.5663 26.1945 58.54 24.7957C58.525 24.0131 58.9247 23.751 59.6409 23.7611C61.799 23.7907 63.9592 23.7516 66.1139 23.8477C67.3499 23.9033 68.5159 24.3323 69.51 25.1251C70.8429 26.1883 70.9143 27.5357 69.6934 28.7103ZM58.5059 20.5991C58.3465 17.7077 58.328 17.688 61.232 17.716C63.2602 17.7359 65.288 17.8333 67.3162 17.8752C68.2563 17.8951 69.0582 18.2307 69.2751 19.1648C69.5046 20.1472 68.7629 20.693 67.9829 21.1171C66.355 22.0027 64.582 21.5544 63.1784 21.6704C61.7701 21.6704 60.6702 21.6552 59.5701 21.6752C58.8163 21.6889 58.547 21.3409 58.5059 20.5991ZM70.0531 22.0164C71.1957 20.988 71.6173 19.6989 71.1306 18.2088C70.5304 16.3686 68.9958 15.8586 67.3108 15.814C64.26 15.7328 61.2057 15.7535 58.1528 15.7715C56.8001 15.7795 56.4149 16.1797 56.3958 17.5429C56.3669 19.627 56.388 21.7109 56.388 23.7949H56.3936C56.3936 25.8787 56.3648 27.9636 56.4025 30.0466C56.4342 31.7595 56.8552 32.161 58.5195 32.2117C61.4488 32.3017 64.374 32.2055 67.2923 31.9652C69.6103 31.7751 71.9538 29.9773 72.4311 27.9854C72.9652 25.7553 71.9668 24.1984 70.0757 23.1256C69.3892 22.7364 69.5712 22.4502 70.0531 22.0164Z" fill="#24104F"/>
<path d="M20.416 22.262C20.874 22.2926 21.5857 21.5814 21.6087 21.0701C21.6369 20.4368 21.1805 19.9801 20.5112 19.9726C19.6688 19.963 19.3993 20.2004 19.3881 20.9631C19.3788 21.5836 19.8879 22.2267 20.416 22.262Z" fill="#24104F"/>
<path d="M41.0127 31.7482C40.7738 33.5863 40.313 35.6645 39.9051 37.4888C39.5056 39.2758 38.2234 40.6148 37.5875 42.0452C36.9695 43.4354 33.5535 45.9697 30.0938 46.3185C28.8157 46.4475 27.3391 46.291 26.0759 46.3699C25.0058 46.4367 23.9355 46.5031 22.8677 46.5982C22.7565 46.6079 22.6529 46.6131 22.5548 46.6131C22.1306 46.6131 21.8297 46.518 21.636 46.3233C21.4035 46.0893 21.2979 45.695 21.3024 45.0821C21.3082 44.2925 21.1726 41.4667 21.1726 41.4667C21.192 40.6426 21.1916 39.8182 21.1998 38.9937C21.2009 38.9031 21.2053 38.8125 21.203 38.7218C21.1978 38.5607 21.1877 38.3994 21.1808 38.2382C21.1626 37.796 21.1437 37.3535 21.1187 36.9103C21.0945 36.483 21.0692 36.0554 21.048 35.6281V32.1822C21.0511 32.1295 21.0536 32.0767 21.0559 32.0236C21.1893 30.6514 21.0584 29.2968 21.089 27.9431L21.1071 27.9475C21.1926 27.7732 21.3464 27.5662 21.5208 27.5075C21.8494 27.396 22.1938 27.3118 22.5269 27.2304C22.7976 27.1643 23.078 27.0959 23.3486 27.0134C23.7575 26.8881 24.1626 26.7511 24.568 26.6136C24.9839 26.4725 25.4129 26.3301 25.8411 26.2004C26.2408 26.0887 26.6403 25.979 27.0395 25.8666C27.2979 25.7993 27.5565 25.7338 27.8111 25.67C28.1995 25.5723 28.5882 25.4748 28.9748 25.3709C29.3567 25.2683 29.7405 25.1483 30.1124 25.0323L30.4773 24.9188C30.6294 24.872 30.7814 24.8221 30.9323 24.7722C30.9811 24.756 31.0311 24.7407 31.0806 24.7247C31.3315 24.6538 31.5826 24.5825 31.8335 24.512C31.8811 24.4989 31.9224 24.4867 31.968 24.4739C33.4953 24.039 33.9175 23.7785 33.9936 22.6872C34.0081 22.4774 34.0111 22.237 34.0058 21.9588C34.0037 21.8603 34.0014 21.7595 33.998 21.6512C33.9237 19.2884 33.9412 18.5209 32.4909 18.2338C32.1153 18.1598 31.6469 18.1159 31.0464 18.0873C31.0375 18.087 31.0282 18.086 31.0189 18.0852C30.9521 18.0784 30.8858 18.0728 30.8193 18.0655C29.4747 17.9154 28.1158 17.8388 26.7723 17.675C26.2205 17.6077 25.6841 17.4591 25.1329 17.3859C24.4439 17.2945 23.7519 17.2786 23.0614 17.1986C22.3284 17.1136 21.5973 16.9619 20.8634 16.8854C20.1401 16.8104 19.4652 16.8056 18.7434 16.7223C18.5376 16.6986 18.3403 16.5496 18.2651 16.4247C18.192 16.3044 18.1908 16.1436 18.2621 15.96C18.3657 15.6932 18.4807 15.4305 18.5969 15.1679C18.7661 14.783 18.942 14.3852 19.0726 13.9797C19.2143 13.5402 19.208 13.3738 19.295 12.9284C19.3332 12.7329 19.5377 12.2745 19.4946 12.0285C19.4979 11.861 19.2393 11.8288 19.12 11.8078C18.899 11.7695 18.7516 11.7213 18.5873 11.7241C18.0168 11.7334 17.1598 11.453 16.7827 11.453C16.1507 11.453 16.2128 11.79 15.8308 12.3153C15.7935 12.3663 15.7148 12.3539 15.6963 12.293C15.3995 11.3286 15.3101 11.3155 14.0397 11.2602L13.9003 11.2554C13.6513 11.2478 13.3941 11.2405 13.1897 11.1402C12.9066 11.0016 12.6883 10.9348 12.5219 10.9348C12.3951 10.9348 12.2977 10.9722 12.2235 11.0505C12.0953 11.1862 12.0443 11.4474 12.0659 11.8506C12.1019 12.4872 12.1856 13.1318 12.2673 13.755C12.3008 14.0051 12.3331 14.2555 12.3632 14.5061C12.3688 14.5552 12.3906 14.601 12.4116 14.6462L12.4349 14.6994C12.4349 14.6994 12.9497 15.7221 12.9114 15.8158C12.8736 15.9094 12.3081 15.7809 12.0317 15.7695C11.4415 15.7453 10.9313 15.7241 10.4383 15.6114C10.282 15.5755 10.1351 15.5573 10.0009 15.5573C9.4164 15.5573 9.09257 15.9001 9.08818 16.5218C9.08565 16.8346 9.08663 17.1471 9.08736 17.4599L9.08818 17.8114C9.08818 18.7625 9.31369 19.0002 10.2934 19.0823C10.8375 19.1277 11.3801 19.2164 11.9547 19.3098C12.2038 19.3499 12.4591 19.3899 12.7118 19.4088C12.7294 19.4112 12.6476 19.2711 12.7635 19.4168C12.8805 19.5627 12.6598 19.7329 12.6033 19.8848C12.4844 20.2081 12.3725 20.5132 12.3661 20.8241C12.3101 23.4237 12.2127 26.1895 11.6983 28.9082C11.5189 29.8578 11.4864 30.8503 11.4545 31.8103C11.4397 32.2568 11.4248 32.703 11.3961 33.1466L11.2955 34.6635C11.2951 34.6715 11.2946 34.6799 11.2942 34.6881C11.2382 35.5211 11.1832 36.3533 11.1303 37.1866C11.1056 37.5719 11.0936 37.956 11.0821 38.3402C11.0534 39.2662 11.0235 40.2237 10.8081 41.1777C10.7405 41.4771 10.6926 41.7825 10.6537 42.0897C10.6198 42.4992 10.5862 42.9083 10.5506 43.3177C10.5506 43.3177 10.3272 44.339 10.3049 44.5813C10.2445 45.2469 10.0834 45.3805 9.84301 45.3805C9.69994 45.3805 9.50958 45.3279 9.27739 45.224C8.62535 44.9324 7.95464 44.6823 7.40683 44.3365C5.9076 43.3886 4.86804 42.1637 4.12653 40.7775C3.79464 40.1564 3.65237 39.2331 3.46719 38.5185C3.23562 37.627 2.90972 36.9901 2.72164 36.0945C2.38414 34.4908 2.04334 33.0282 1.84464 31.4136C1.68285 30.0945 1.63974 28.6244 1.56995 27.2996C1.44915 24.9976 1.73755 22.7866 1.89624 20.473C2.01822 18.6989 1.95346 16.8246 2.23974 15.0476C2.40617 14.0151 2.75585 13.1137 2.97776 12.0809C3.138 11.3367 3.15733 10.4613 3.34638 9.71724C3.61545 8.65579 4.19264 7.67627 4.70334 6.82933C5.42106 5.63997 6.18769 4.68964 7.35619 3.94686C8.52508 3.2031 9.93774 2.74765 11.527 2.47905C12.9803 2.23345 14.4623 1.82031 15.905 1.68099C17.776 1.50032 19.5764 1.57182 21.4015 1.57182C22.8459 1.57182 24.0511 1.79945 25.4846 1.91249C26.5335 1.99597 27.8152 1.93876 28.8524 2.08157C29.7824 2.21045 30.7999 2.22533 31.7162 2.40175C32.6979 2.59093 33.5042 3.01179 34.3195 3.38899C35.1356 3.76599 35.6776 4.41312 36.3254 4.97602C36.8156 5.40191 37.4472 5.70316 37.8403 6.23436C38.339 6.90836 38.7598 7.66739 39.1014 8.51008C39.3714 9.17484 39.7859 9.84415 39.9565 10.6136C40.0854 11.1937 40.0126 11.8219 40.1249 12.4022C40.4665 14.1666 40.5712 15.9577 40.918 17.6999C41.3471 19.8554 41.0135 21.5319 41.038 23.4077C41.076 26.2737 41.3821 28.9007 41.0127 31.7482ZM42.4905 17.8924C42.2622 16.5537 42.3001 15.2474 41.914 13.8449C41.5456 12.504 41.6307 11.1802 41.0401 9.74352C40.2091 7.7213 39.5465 6.039 38.3599 4.56405C37.4073 3.38029 36.2227 2.40176 34.4229 1.76756C33.6275 1.48738 33.0551 1.08912 31.9039 1.02748C30.6159 0.959068 29.3523 0.618012 28.0682 0.425938C25.6131 0.0591796 23.6608 0.177054 21.4498 0.0292295C19.5874 -0.0950198 18.2254 0.215698 16.5853 0.237533C14.5147 0.265359 13.3069 0.583424 11.6656 0.858398C10.5721 1.04158 9.6472 1.01183 8.63544 1.67172C7.49304 2.41663 6.30077 2.88503 5.29619 3.64232C3.69877 4.84752 2.95398 6.23996 2.25269 8.00709C1.98091 8.69175 1.75649 9.42257 1.57962 10.2001C1.24811 11.6565 1.18742 13.1636 0.74109 14.5665C0.196758 16.2769 0.501784 17.6275 0.376912 19.1088C0.185546 21.3781 0.0821314 23.55 0.0108039 25.8037C-0.0609103 28.0671 0.237545 30.0116 0.517056 32.1C0.811065 34.3002 0.789029 36.4078 1.76809 38.6598C2.20243 39.6577 2.60044 40.7266 3.08079 41.6076C3.83079 42.9826 4.64651 44.1005 5.91978 45.0396C6.89652 45.7598 8.02597 46.3505 9.30563 46.8085C9.73859 46.9639 10.5031 46.9702 10.5031 46.9702C11.2765 47.0338 11.5388 46.5659 11.6619 45.2723C11.6826 45.0572 11.6979 44.8418 11.7176 44.6269C11.7209 44.5938 11.9383 42.5994 12.0544 41.6213C12.1436 40.874 12.235 40.1017 12.306 39.3404C12.3479 38.8938 12.3539 38.4368 12.3595 37.9947C12.3657 37.569 12.3713 37.129 12.4092 36.6993C12.4558 36.1713 12.5353 35.6367 12.6122 35.1201C12.6739 34.7049 12.7355 34.2894 12.7821 33.8726C12.8567 33.2014 12.911 32.5172 12.9634 31.8552C12.9868 31.5666 13.0092 31.2783 13.034 30.9899L13.0423 30.903C13.0481 30.8417 13.0545 30.7811 13.0573 30.7194C13.0879 30.0402 13.1006 29.3463 13.1128 28.6756C13.1411 27.1233 13.17 25.5184 13.4254 23.9777C13.5604 23.1651 13.6027 22.3406 13.6436 21.5426C13.6856 20.7218 13.7291 19.8734 13.874 19.0471C13.9088 18.8494 13.8599 18.661 13.7335 18.5016C13.5365 18.2535 13.166 18.0978 12.7156 18.0732C12.4837 18.0607 12.2502 18.0607 12.0164 18.0603C11.8424 18.0599 11.6685 18.0595 11.4944 18.0543C10.9571 18.0373 10.6795 18.0027 10.5558 17.8497C10.4358 17.7003 10.4588 17.4357 10.5298 16.9523L11.1739 17.0074L13.6038 17.1957C13.7673 17.2095 14.0304 17.3142 14.1155 17.2352C14.2004 17.1567 14.0223 16.5378 14.0223 16.5378C13.9506 15.9995 13.8866 15.5216 13.8265 15.0427C13.813 14.9317 13.8052 14.8186 13.7977 14.7061C13.7851 14.5281 13.7733 14.3442 13.7339 14.1685C13.7038 14.031 13.6513 13.8961 13.6006 13.7661C13.539 13.6078 13.4752 13.4439 13.4533 13.2783C13.4239 13.0662 13.4451 12.8422 13.4656 12.6255C13.4737 12.5415 13.4069 12.4014 13.4669 12.3521C13.5276 12.3023 13.6461 12.4215 13.7399 12.4528C13.9483 12.5222 14.1638 12.5939 14.2684 12.7371C14.4742 13.0194 14.5545 13.4023 14.631 13.7724L14.6389 13.8085C14.731 14.2513 14.8002 14.7046 14.8671 15.1426C14.8904 15.2941 14.9132 15.4447 14.9459 15.6033C14.9596 15.6721 15.0183 15.7266 15.0878 15.7378C15.3016 15.7724 15.458 15.7917 15.5873 15.7917C16.0274 15.7917 16.1248 15.5517 16.3396 14.858C16.4749 14.4244 16.6195 13.9935 16.767 13.5541L16.9019 13.1152C16.9261 13.0371 16.9978 12.9833 17.08 12.9812L17.6824 12.9332C17.8997 12.9119 18.068 12.8418 18.0462 12.9643C17.96 13.2271 17.9277 13.4729 17.7953 13.7422C17.5046 14.3338 17.4047 14.9631 17.1892 15.5557C17.0996 15.8014 16.972 16.0385 16.8487 16.2676C16.7685 16.4162 16.6889 16.5641 16.6183 16.7158C16.5176 16.9312 16.5176 17.1589 16.6171 17.3403C16.7171 17.5211 16.9015 17.6375 17.1368 17.6673C17.8961 17.7638 18.6564 17.8501 19.4177 17.9366C19.9766 17.9998 20.5686 18.0469 21.1268 18.1142C21.9888 18.2185 22.8081 18.4244 23.6693 18.5347L24.7761 18.5975C24.8716 18.6027 24.9672 18.6131 25.062 18.628L26.2116 18.8245C26.9247 18.9478 27.4813 18.9776 28.0199 19.0009C28.6997 19.1068 29.314 19.1522 29.8393 19.1719C29.9689 19.1946 30.0975 19.216 30.222 19.2264C30.8591 19.2804 31.4939 19.284 32.132 19.3834C32.4058 19.5453 32.6411 19.8042 32.7828 20.1814C32.8694 20.4138 32.9255 20.6406 32.9585 20.8608C32.9657 21.1213 32.9657 21.3825 32.9589 21.6426C32.8404 22.3812 32.3732 22.9831 31.6102 23.3323C30.8858 23.4727 30.1655 23.6266 29.4668 23.8008C29.0183 23.9125 28.5693 24.0519 28.1351 24.1864C27.8341 24.2797 27.5336 24.3729 27.2307 24.458C26.8566 24.5636 26.4768 24.6557 26.0973 24.7479C25.3239 24.9362 24.5244 25.1305 23.7864 25.4385C22.771 25.8621 21.7069 26.0901 20.6776 26.3108L20.3394 26.3832C20.1211 26.4308 19.9555 26.8169 19.8286 27.1133C19.7755 27.2372 19.7878 27.389 19.8008 27.5361C19.8061 27.6001 19.8113 27.6644 19.8113 27.7264V28.4928L19.8314 28.4944C19.8113 28.6192 19.7985 28.7428 19.8052 28.8648C19.8145 29.0404 19.8231 29.2155 19.8318 29.3911C19.9458 31.6294 19.6388 33.3443 19.8318 36.1033C19.8435 36.2716 19.8 36.4399 19.7844 36.6086C19.7714 36.7431 19.761 36.8776 19.7461 37.0125C19.7113 37.3205 19.6974 37.631 19.6881 37.942C19.6566 39.0469 19.7513 40.1661 19.7625 41.2763C19.7763 42.6263 19.9378 45.9797 19.9394 46.0027C19.9372 46.126 19.9354 46.2495 19.9338 46.3727C19.9228 47.2577 20.2137 47.7401 20.9466 47.8823C20.9466 47.8823 22.4028 48.2922 30.1562 47.5824C32.8118 47.3395 35.3643 46.9965 36.6703 45.3838C37.6648 44.1562 38.7977 43.6926 39.5993 42.2012C40.1549 41.1668 40.4891 40.0055 40.9677 38.8205C41.7334 36.9224 42.1195 35.0433 42.429 32.7777C42.6594 31.0862 42.6198 29.3199 42.7209 27.6271C42.8237 25.9121 42.6347 24.5145 42.8019 22.4807C42.9022 21.2562 42.8651 20.0917 42.4905 17.8924Z" fill="#24104F"/>
</g>
<defs>
<clipPath id="clip0_19_237">
<rect width="162.523" height="48" fill="white"/>
</clipPath>
</defs>
</svg>
