<svg width="82" height="92" viewBox="0 0 82 92" fill="none" xmlns="http://www.w3.org/2000/svg">
<path d="M38.9826 42.6699C39.857 42.7285 41.216 41.3655 41.2599 40.3855C41.3139 39.1715 40.4424 38.2963 39.1643 38.2818C37.5557 38.2634 37.0412 38.7185 37.0198 40.1804C37.0021 41.3696 37.9742 42.6022 38.9826 42.6699Z" fill="#A98DE2"/>
<path d="M78.3115 60.8507C77.8553 64.3736 76.9754 68.3569 76.1966 71.8536C75.4337 75.2786 72.9854 77.8449 71.7712 80.5867C70.5912 83.2511 64.0686 88.1086 57.4625 88.777C55.022 89.0243 52.2024 88.7243 49.7905 88.8756C47.7472 89.0036 45.7034 89.131 43.6646 89.3133C43.4523 89.3318 43.2545 89.3418 43.0671 89.3418C42.2572 89.3418 41.6825 89.1595 41.3127 88.7862C40.8687 88.3378 40.6672 87.5821 40.6757 86.4073C40.6867 84.894 40.428 79.4779 40.428 79.4779C40.465 77.8983 40.4642 76.3182 40.4797 74.738C40.4819 74.5643 40.4903 74.3906 40.486 74.2169C40.476 73.908 40.4567 73.5988 40.4435 73.2898C40.4089 72.4424 40.3727 71.5942 40.325 70.7447C40.2788 69.9258 40.2305 69.1062 40.1899 68.2872V61.6826C40.1958 61.5815 40.2006 61.4803 40.205 61.3785C40.4597 58.7486 40.2098 56.1523 40.2682 53.5576L40.3029 53.566C40.4661 53.232 40.7598 52.8353 41.0928 52.7227C41.7203 52.5089 42.3779 52.3475 43.0138 52.1916C43.5307 52.065 44.0662 51.9338 44.5829 51.7757C45.3636 51.5356 46.1371 51.273 46.9112 51.0093C47.7054 50.7389 48.5245 50.4661 49.3421 50.2175C50.1054 50.0034 50.8682 49.7931 51.6304 49.5776C52.1238 49.4486 52.6177 49.3231 53.1038 49.2008C53.8453 49.0136 54.5876 48.8267 55.3258 48.6276C56.0551 48.4308 56.7878 48.2008 57.4979 47.9786L58.1947 47.7609C58.4852 47.6713 58.7753 47.5757 59.0635 47.4801C59.1566 47.4491 59.2522 47.4198 59.3467 47.389C59.8258 47.2531 60.3052 47.1165 60.7843 46.9813C60.8752 46.9562 60.9541 46.9328 61.0411 46.9083C63.9575 46.0747 64.7635 45.5754 64.909 43.4839C64.9366 43.0817 64.9422 42.621 64.9321 42.0877C64.9281 41.8988 64.9237 41.7058 64.9174 41.4981C64.7753 36.9695 64.8089 35.4984 62.0396 34.9482C61.3224 34.8063 60.4281 34.7222 59.2814 34.6673C59.2643 34.6667 59.2466 34.6648 59.2289 34.6633C59.1013 34.6503 58.9747 34.6396 58.8477 34.6255C56.2802 34.3378 53.6856 34.1911 51.1203 33.8771C50.0665 33.7481 49.0423 33.4634 47.9899 33.323C46.6742 33.1478 45.3528 33.1174 44.0345 32.9641C42.6348 32.8011 41.2389 32.5103 39.8375 32.3637C38.4563 32.22 37.1678 32.2108 35.7895 32.0511C35.3965 32.0056 35.0197 31.72 34.8761 31.4807C34.7366 31.2501 34.7344 30.9419 34.8705 30.59C35.0683 30.0785 35.2879 29.5752 35.5098 29.0718C35.8327 28.3341 36.1687 27.5716 36.4181 26.7945C36.6887 25.952 36.6766 25.6331 36.8427 24.7793C36.9157 24.4046 37.3062 23.5261 37.2239 23.0546C37.2302 22.7335 36.7364 22.6719 36.5086 22.6317C36.0867 22.5582 35.8051 22.4658 35.4913 22.4712C34.4022 22.489 32.7657 21.9517 32.0456 21.9517C30.8389 21.9517 30.9575 22.5975 30.228 23.6042C30.1569 23.702 30.0066 23.6783 29.9712 23.5617C29.4046 21.7131 29.2338 21.688 26.808 21.582L26.5419 21.5728C26.0665 21.5583 25.5753 21.5442 25.1851 21.352C24.6445 21.0864 24.2277 20.9584 23.9099 20.9584C23.6678 20.9584 23.4818 21.0301 23.34 21.1801C23.0953 21.4402 22.9979 21.9409 23.0392 22.7136C23.1079 23.9339 23.2676 25.1693 23.4238 26.3638C23.4877 26.8431 23.5494 27.3231 23.6069 27.8033C23.6176 27.8975 23.6592 27.9853 23.6992 28.0719L23.7438 28.1738C23.7438 28.1738 24.7267 30.1341 24.6536 30.3137C24.5814 30.493 23.5017 30.2466 22.9739 30.2248C21.847 30.1785 20.8727 30.1378 19.9314 29.9218C19.6329 29.8531 19.3524 29.8181 19.0961 29.8181C17.9801 29.8181 17.3618 30.4752 17.3534 31.6667C17.3486 32.2663 17.3504 32.8652 17.3518 33.4648L17.3534 34.1386C17.3534 35.9614 17.784 36.417 19.6546 36.5744C20.6936 36.6614 21.7297 36.8315 22.8269 37.0104C23.3024 37.0874 23.7899 37.1639 24.2724 37.2003C24.306 37.2048 24.1498 36.9363 24.3713 37.2156C24.5946 37.4951 24.1731 37.8214 24.0653 38.1125C23.8383 38.7322 23.6246 39.3169 23.6125 39.9129C23.5054 44.8954 23.3194 50.1964 22.3373 55.4074C21.9946 57.2274 21.9326 59.1297 21.8717 60.9697C21.8434 61.8256 21.815 62.6807 21.7603 63.531L21.5681 66.4383C21.5673 66.4536 21.5665 66.4698 21.5657 66.4854C21.4588 68.082 21.3536 69.6772 21.2528 71.2743C21.2055 72.0128 21.1827 72.7491 21.1606 73.4854C21.1059 75.2602 21.0487 77.0954 20.6375 78.9238C20.5084 79.4978 20.4169 80.083 20.3426 80.672C20.2779 81.4568 20.2138 82.2408 20.1459 83.0256C20.1459 83.0256 19.7193 84.9831 19.6767 85.4474C19.5613 86.7233 19.2537 86.9793 18.7947 86.9793C18.5215 86.9793 18.158 86.8786 17.7147 86.6793C16.4696 86.1204 15.1889 85.6411 14.1429 84.9782C11.2802 83.1615 9.29524 80.8137 7.87939 78.1568C7.24566 76.9664 6.974 75.1967 6.62041 73.8272C6.17824 72.1183 5.55595 70.8977 5.19681 69.181C4.55238 66.1073 3.90165 63.304 3.52223 60.2093C3.2133 57.6812 3.13099 54.8633 2.99774 52.3241C2.76707 47.912 3.31775 43.6743 3.62077 39.2399C3.85368 35.8396 3.73003 32.2471 4.27666 28.8412C4.59444 26.8623 5.26214 25.1346 5.68586 23.155C5.99184 21.7287 6.02875 20.0509 6.38972 18.6247C6.90351 16.5903 8.00562 14.7128 8.98077 13.0895C10.3512 10.8099 11.8151 8.98849 14.0462 7.56481C16.2782 6.13928 18.9756 5.26632 22.0102 4.75151C24.7851 4.28078 27.6149 3.48893 30.3698 3.22189C33.9423 2.87562 37.38 3.01265 40.865 3.01265C43.623 3.01265 45.9242 3.44895 48.6614 3.6656C50.6642 3.8256 53.1115 3.71597 55.0921 3.98967C56.8678 4.2367 58.8107 4.26522 60.5603 4.60336C62.4349 4.96595 63.9744 5.7726 65.5312 6.49557C67.0895 7.21814 68.1245 8.45849 69.3613 9.53737C70.2974 10.3537 71.5033 10.9311 72.254 11.9492C73.2063 13.241 74.0097 14.6958 74.6619 16.311C75.1775 17.5851 75.9689 18.868 76.2948 20.3428C76.5409 21.4546 76.4018 22.6587 76.6163 23.7709C77.2685 27.1526 77.4685 30.5856 78.1306 33.9248C78.9501 38.0562 78.3129 41.2695 78.3598 44.8647C78.4323 50.3578 79.0169 55.393 78.3115 60.8507ZM81.1332 34.2937C80.6973 31.7278 80.7697 29.2242 80.0325 26.5361C79.3291 23.966 79.4915 21.4287 78.3639 18.6751C76.7771 14.7992 75.5119 11.5747 73.246 8.74776C71.4271 6.4789 69.1653 4.60337 65.7287 3.38782C64.2098 2.85081 63.1169 2.08747 60.9187 1.96934C58.4594 1.83821 56.0467 1.18452 53.5947 0.816381C48.9068 0.113427 45.179 0.339353 40.9573 0.0560233C37.401 -0.182121 34.8004 0.413421 31.6687 0.455272C27.7149 0.508605 25.4089 1.11823 22.2748 1.64526C20.1869 1.99636 18.4208 1.93934 16.4889 3.20413C14.3076 4.63188 12.031 5.52964 10.1128 6.98111C7.06259 9.29107 5.64045 11.9599 4.30138 15.3469C3.78243 16.6592 3.35392 18.0599 3.0162 19.5502C2.3832 22.3417 2.26731 25.2301 1.41507 27.919C0.375698 31.1974 0.958128 33.786 0.719693 36.6252C0.35429 40.9748 0.156825 45.1375 0.0206294 49.4572C-0.116305 53.7952 0.453578 57.5223 0.98729 61.5251C1.54868 65.7421 1.50661 69.7817 3.37607 74.0979C4.20542 76.0106 4.96539 78.0593 5.8826 79.7479C7.31467 82.3834 8.87225 84.526 11.3035 86.3259C13.1685 87.7063 15.3251 88.8385 17.7686 89.7162C18.5953 90.014 20.0551 90.0262 20.0551 90.0262C21.5318 90.1481 22.0327 89.2514 22.2678 86.7719C22.3073 86.3596 22.3365 85.9467 22.3741 85.5349C22.3803 85.4714 22.7955 81.6489 23.0171 79.7741C23.1876 78.3419 23.3621 76.8616 23.4976 75.4024C23.5777 74.5465 23.5891 73.6705 23.5999 72.8232C23.6117 72.0073 23.6224 71.1639 23.6947 70.3402C23.7837 69.3284 23.9354 68.3036 24.0822 67.3136C24.2 66.5177 24.3178 65.7214 24.4067 64.9225C24.5492 63.6359 24.6528 62.3247 24.7529 61.0559C24.7975 60.5026 24.8404 59.95 24.8876 59.3974L24.9035 59.2307C24.9145 59.1133 24.9268 58.9971 24.9322 58.8789C24.9907 57.577 25.0149 56.2471 25.0382 54.9616C25.0922 51.9864 25.1475 48.9102 25.6351 45.9573C25.8928 44.3998 25.9736 42.8195 26.0517 41.2899C26.1319 39.7169 26.2149 38.0907 26.4917 36.507C26.5582 36.1281 26.4648 35.767 26.2234 35.4615C25.8472 34.9859 25.1397 34.6874 24.2797 34.6403C23.8369 34.6163 23.391 34.6163 22.9447 34.6155C22.6125 34.6148 22.2804 34.614 21.9478 34.604C20.9221 34.5714 20.392 34.5051 20.1558 34.2118C19.9266 33.9255 19.9706 33.4185 20.1061 32.4919L21.3359 32.5975L25.9757 32.9585C26.2879 32.9848 26.7903 33.1855 26.9527 33.0341C27.1148 32.8838 26.7748 31.6974 26.7748 31.6974C26.6379 30.6656 26.5157 29.7497 26.4009 28.8319C26.3751 28.619 26.3603 28.4023 26.3459 28.1868C26.322 27.8456 26.2994 27.493 26.2241 27.1564C26.1666 26.8927 26.0665 26.6342 25.9695 26.385C25.852 26.0815 25.7302 25.7675 25.6883 25.4502C25.6322 25.0435 25.6727 24.6142 25.7119 24.199C25.7273 24.0379 25.5997 23.7694 25.7144 23.6749C25.8303 23.5794 26.0565 23.8079 26.2356 23.8679C26.6335 24.0009 27.045 24.1383 27.2447 24.4128C27.6377 24.9538 27.7909 25.6878 27.9372 26.3971L27.9522 26.4664C28.128 27.315 28.2601 28.1838 28.3878 29.0234C28.4324 29.3137 28.4759 29.6023 28.5384 29.9064C28.5645 30.0382 28.6767 30.1426 28.8093 30.1642C29.2175 30.2304 29.5162 30.2674 29.7631 30.2674C30.6035 30.2674 30.7895 29.8074 31.1996 28.4779C31.4578 27.6468 31.734 26.8208 32.0156 25.9786L32.2732 25.1375C32.3194 24.9878 32.4563 24.8846 32.6132 24.8805L33.7636 24.7887C34.1785 24.7478 34.4999 24.6134 34.4583 24.8483C34.2937 25.3519 34.232 25.823 33.9792 26.3393C33.4241 27.4731 33.2333 28.6794 32.8218 29.8152C32.6508 30.2859 32.4072 30.7405 32.1717 31.1796C32.0185 31.4645 31.8665 31.7478 31.7318 32.0386C31.5394 32.4515 31.5394 32.8878 31.7295 33.2355C31.9203 33.5822 32.2724 33.8052 32.7217 33.8622C34.1715 34.0473 35.6234 34.2126 37.077 34.3785C38.1441 34.4995 39.2746 34.59 40.3405 34.7189C41.9863 34.9188 43.5509 35.3133 45.1953 35.5248L47.3087 35.6452C47.491 35.6551 47.6734 35.6751 47.8546 35.7036L50.0496 36.0804C51.4112 36.3166 52.4741 36.3737 53.5025 36.4184C54.8005 36.6215 55.9735 36.7085 56.9764 36.7462C57.224 36.7896 57.4695 36.8307 57.7072 36.8507C58.9237 36.9541 60.1358 36.9611 61.3543 37.1515C61.8772 37.4618 62.3264 37.9581 62.597 38.681C62.7623 39.1265 62.8694 39.5611 62.9325 39.9832C62.9461 40.4825 62.9461 40.9832 62.9333 41.4817C62.707 42.8973 61.8149 44.051 60.358 44.7203C58.9747 44.9894 57.5994 45.2843 56.2652 45.6183C55.4088 45.8324 54.5514 46.0995 53.7224 46.3572C53.1477 46.5361 52.5738 46.7146 51.9955 46.8779C51.2812 47.0801 50.556 47.2568 49.8314 47.4335C48.3547 47.7943 46.828 48.1668 45.4189 48.7572C43.48 49.569 41.4482 50.0061 39.4827 50.4289L38.8369 50.5679C38.4201 50.6589 38.1039 51.399 37.8616 51.9672C37.7601 52.2045 37.7838 52.4957 37.8085 52.7774C37.8186 52.9002 37.8285 53.0235 37.8285 53.1423V54.6112L37.8669 54.6142C37.8285 54.8534 37.8041 55.0904 37.817 55.3241C37.8347 55.6608 37.851 55.9963 37.8677 56.333C38.0854 60.623 37.4992 63.9099 37.8677 69.198C37.89 69.5207 37.8071 69.8431 37.7772 70.1665C37.7524 70.4243 37.7325 70.682 37.704 70.9406C37.6377 71.5309 37.6111 72.1261 37.5934 72.7221C37.5333 74.8398 37.714 76.985 37.7354 79.113C37.7617 81.7004 38.0702 88.1277 38.0731 88.1719C38.0691 88.4081 38.0655 88.6448 38.0625 88.881C38.0414 90.5773 38.597 91.5018 39.9965 91.7744C39.9965 91.7744 42.777 92.56 57.5817 91.1996C62.6523 90.734 67.5262 90.0766 70.0198 86.9855C71.9188 84.6327 74.0821 83.7442 75.6127 80.8856C76.6735 78.9031 77.3117 76.6772 78.2256 74.406C79.6876 70.768 80.4249 67.1662 81.0159 62.824C81.4558 59.5819 81.3801 56.1964 81.5732 52.9519C81.7696 49.6649 81.4086 46.9861 81.7279 43.088C81.9194 40.741 81.8485 38.5092 81.1332 34.2937Z" fill="#A98DE2"/>
</svg>
