<svg width="33" height="32" viewBox="0 0 33 32" fill="none" xmlns="http://www.w3.org/2000/svg">
<rect x="0.5" width="32" height="32" rx="16" fill="#7F56D9"/>
<path d="M16.5 22L16.44 21.8999C16.0232 21.2053 15.8148 20.858 15.5395 20.6065C15.2957 20.3839 15.0149 20.2169 14.713 20.1151C14.372 20 13.9963 20 13.2449 20H12.42C11.7479 20 11.4119 20 11.1552 19.8547C10.9294 19.7268 10.7458 19.5229 10.6308 19.272C10.5 18.9868 10.5 18.6134 10.5 17.8667V12.1333C10.5 11.3866 10.5 11.0132 10.6308 10.728C10.7458 10.4771 10.9294 10.2732 11.1552 10.1453C11.4119 10 11.7479 10 12.42 10H12.66C14.0041 10 14.6762 10 15.1896 10.2906C15.6412 10.5463 16.0083 10.9543 16.2384 11.456C16.5 12.0265 16.5 12.7732 16.5 14.2667M16.5 22V14.2667M16.5 22L16.56 21.8999C16.9768 21.2053 17.1852 20.858 17.4605 20.6065C17.7043 20.3839 17.9851 20.2169 18.287 20.1151C18.6281 20 19.0037 20 19.7551 20H20.58C21.2521 20 21.5881 20 21.8448 19.8547C22.0706 19.7268 22.2542 19.5229 22.3692 19.272C22.5 18.9868 22.5 18.6134 22.5 17.8667V12.1333C22.5 11.3866 22.5 11.0132 22.3692 10.728C22.2542 10.4771 22.0706 10.2732 21.8448 10.1453C21.5881 10 21.2521 10 20.58 10H20.34C18.9959 10 18.3238 10 17.8104 10.2906C17.3588 10.5463 16.9917 10.9543 16.7616 11.456C16.5 12.0265 16.5 12.7732 16.5 14.2667" stroke="#E9E2F8" stroke-width="1.2" stroke-linecap="round" stroke-linejoin="round"/>
</svg>
