<svg width="143" height="36" viewBox="0 0 143 36" fill="none" xmlns="http://www.w3.org/2000/svg">
<path d="M42.9695 0.000325781C33.672 -0.0568752 25.2038 7.42454 25.1681 17.6492C25.1323 27.719 33.374 35.403 42.8575 35.4077C52.6269 35.4125 60.6517 27.4044 60.5755 17.6897C60.6303 7.9322 52.5554 0.0599101 42.9695 0.000325781ZM30.8953 17.7541C30.862 11.5597 35.6931 5.75618 42.8885 5.76095C49.9194 5.76572 54.8173 11.4095 54.8649 17.7898C54.7124 24.6349 49.2521 29.7615 42.7526 29.69C36.1435 29.6161 30.9311 24.3155 30.8953 17.7541Z" fill="#B39DDB"/>
<path d="M0 27.8025V7.56055H14.6148V9.76278H2.2928V16.7961H13.2706V19.0293H2.2928V27.8049H0V27.8025Z" fill="#B39DDB"/>
<path d="M71.0986 27.7215V7.52246H73.3867V18.0498L84.6147 7.52246H87.849L79.245 15.6378L88.3376 27.7215H85.4704L77.5671 17.1942L73.3867 21.1005V27.7215H71.0986Z" fill="#B39DDB"/>
<path d="M107.331 28.0641C105.66 28.0641 104.18 27.6923 102.886 26.9487C101.591 26.2051 100.579 25.1612 99.8468 23.8169C99.1127 22.4727 98.748 20.9044 98.748 19.1121V7.5957H101.038V19.1741C101.038 20.7424 101.339 22.0151 101.939 22.9923C102.54 23.9695 103.324 24.6869 104.292 25.1469C105.259 25.6045 106.272 25.8333 107.331 25.8333C108.41 25.8333 109.428 25.6045 110.386 25.1469C111.344 24.6892 112.128 23.9719 112.738 22.9923C113.349 22.0151 113.656 20.7424 113.656 19.1741V7.5957H115.946V19.1121C115.946 20.883 115.579 22.4417 114.848 23.786C114.114 25.1302 113.101 26.1789 111.809 26.932C110.512 27.6875 109.02 28.0641 107.331 28.0641Z" fill="#B39DDB"/>
<path d="M135.042 27.9213C133.057 27.9213 131.446 27.6544 130.211 27.1157C128.977 26.5795 128.05 25.8359 127.432 24.8825C126.815 23.9316 126.455 22.8567 126.353 21.6626H128.722C128.781 22.635 129.105 23.4191 129.694 24.0174C130.28 24.6156 131.055 25.0565 132.018 25.3401C132.981 25.6238 134.039 25.7644 135.192 25.7644C136.894 25.7644 138.241 25.4665 139.232 24.8682C140.224 24.27 140.722 23.3858 140.722 22.2108C140.722 21.5029 140.474 20.9309 139.978 20.4947C139.483 20.0586 138.825 19.7011 138.002 19.4151C137.183 19.1314 136.286 18.874 135.314 18.6405C134.342 18.4069 133.364 18.159 132.382 17.8969C131.401 17.6347 130.5 17.2986 129.68 16.8935C128.86 16.4883 128.202 15.9663 127.704 15.33C127.208 14.6912 126.96 13.8761 126.96 12.8846C126.96 11.2449 127.594 9.9078 128.86 8.87341C130.125 7.84141 132.013 7.32422 134.525 7.32422C136.308 7.32422 137.776 7.59354 138.93 8.1298C140.083 8.66606 140.951 9.37153 141.527 10.2415C142.104 11.1114 142.424 12.0552 142.486 13.0658H140.145C140.024 12.0528 139.518 11.1972 138.627 10.4989C137.736 9.80055 136.367 9.45018 134.525 9.45018C133.391 9.45018 132.468 9.56221 131.76 9.78386C131.05 10.0079 130.509 10.2963 130.135 10.649C129.761 11.0041 129.506 11.3736 129.375 11.7573C129.244 12.1434 129.177 12.5081 129.177 12.8513C129.177 13.5186 129.425 14.062 129.92 14.4767C130.416 14.8914 131.074 15.237 131.896 15.5087C132.716 15.7828 133.622 16.0307 134.616 16.2523C135.607 16.4764 136.596 16.7242 137.578 16.996C138.56 17.27 139.461 17.6132 140.281 18.0279C141.101 18.4426 141.759 18.9741 142.257 19.6224C142.753 20.2707 143 21.1001 143 22.113C143 23.9768 142.29 25.4092 140.874 26.4126C139.459 27.4184 137.514 27.9213 135.042 27.9213Z" fill="#B39DDB"/>
</svg>
