<svg width="18" height="18" viewBox="0 0 18 18" fill="none" xmlns="http://www.w3.org/2000/svg">
<path d="M13.5816 3.17097C13.0067 3.17097 12.5405 3.63675 12.5405 4.2121C12.5405 4.78682 13.0067 5.25323 13.5816 5.25323C14.1568 5.25323 14.6229 4.78682 14.6229 4.2121C14.6229 3.63675 14.1568 3.17097 13.5816 3.17097Z" fill="#262357"/>
<path d="M8.95313 11.6814C7.40828 11.6814 6.15155 10.4249 6.15155 8.8798C6.15155 7.33532 7.40828 6.0782 8.95313 6.0782C10.4977 6.0782 11.7545 7.33532 11.7545 8.8798C11.7545 10.4249 10.4977 11.6814 8.95313 11.6814ZM8.95313 4.50617C6.54108 4.50617 4.57928 6.46823 4.57928 8.8798C4.57928 11.2914 6.54108 13.2534 8.95313 13.2534C11.3646 13.2534 13.3267 11.2914 13.3267 8.8798C13.3267 6.46823 11.3646 4.50617 8.95313 4.50617" fill="#262357"/>
<path d="M5.33464 1.67093C3.31413 1.67093 1.67074 3.31433 1.67074 5.33461V12.426C1.67074 14.4456 3.31413 16.089 5.33464 16.089H12.4251C14.4454 16.089 16.089 14.4456 16.089 12.426V5.33461C16.089 3.31433 14.4454 1.67093 12.4251 1.67093H5.33464ZM12.4251 17.76H5.33464C2.39314 17.76 0 15.3672 0 12.426V5.33461C0 2.39277 2.39314 -2.00519e-05 5.33464 -2.00519e-05H12.4251C15.3666 -2.00519e-05 17.76 2.39277 17.76 5.33461V12.426C17.76 15.3672 15.3666 17.76 12.4251 17.76Z" fill="#262357"/>
</svg>
