<svg width="349" height="252" viewBox="0 0 349 252" fill="none" xmlns="http://www.w3.org/2000/svg">
<path d="M85.0504 252C69.409 252 56.0486 249.19 44.9692 243.569C34.5416 237.948 26.0691 230.141 19.5518 220.149C13.0345 210.781 8.14659 199.539 4.88796 186.424C1.62932 172.684 0 159.881 0 148.015C0 116.788 8.14659 88.3718 24.4398 62.7657C41.3847 36.5353 67.1279 15.6134 101.669 0L110.468 16.8625C91.5677 24.3569 74.9486 36.223 60.6106 52.461C46.9244 68.6989 38.7778 85.2491 36.1709 102.112C34.2157 113.978 34.5416 124.907 37.1485 134.9C50.183 122.409 66.802 116.164 87.0056 116.164C107.861 116.164 125.132 122.097 138.818 133.963C152.504 145.829 159.347 162.691 159.347 184.55C159.347 204.535 152.178 220.773 137.84 233.264C123.502 245.755 105.906 252 85.0504 252ZM274.703 252C259.062 252 245.701 249.19 234.622 243.569C224.194 237.948 215.722 230.141 209.204 220.149C202.687 210.781 197.799 199.539 194.541 186.424C191.282 172.684 189.653 159.881 189.653 148.015C189.653 116.788 197.799 88.3718 214.092 62.7657C231.037 36.5353 256.781 15.6134 291.322 0L300.12 16.8625C281.22 24.3569 264.601 36.223 250.263 52.461C236.577 68.6989 228.43 85.2491 225.824 102.112C223.868 113.978 224.194 124.907 226.801 134.9C239.836 122.409 256.455 116.164 276.658 116.164C297.514 116.164 314.784 122.097 328.471 133.963C342.157 145.829 349 162.691 349 184.55C349 204.535 341.831 220.773 327.493 233.264C313.155 245.755 295.558 252 274.703 252Z" fill="#20133A"/>
</svg>
