<svg width="50" height="59" viewBox="0 0 50 59" fill="none" xmlns="http://www.w3.org/2000/svg">
<path d="M11.3342 0.94402L12.6774 2.598L8.37661 11.6204L8.46257 11.7262L17.4341 8.45529L18.7773 10.1093L10.2403 18.0165L9.18725 16.7198L15.3649 10.9978L15.2969 10.914L6.96826 13.9604L6.09429 12.8842L10.1002 4.50598L10.0321 4.42218L3.8503 10.148L2.79724 8.85126L11.3342 0.94402ZM13.9517 22.8655C13.4359 22.2303 13.1234 21.5487 13.014 20.8204C12.9047 20.0922 12.9911 19.3682 13.2732 18.6483C13.5554 17.9284 14.0271 17.2622 14.6885 16.6496C15.3527 16.0344 16.0398 15.6273 16.7497 15.4283C17.4597 15.2292 18.1445 15.239 18.804 15.4576C19.4636 15.6761 20.0513 16.103 20.5671 16.7381C21.0829 17.3733 21.3954 18.0549 21.5047 18.7832C21.6141 19.5114 21.5263 20.2367 21.2414 20.9592C20.9565 21.6816 20.4819 22.3504 19.8177 22.9656C19.1563 23.5782 18.4721 23.9827 17.7649 24.1792C17.0577 24.3757 16.3743 24.3646 15.7147 24.146C15.0552 23.9274 14.4675 23.5006 13.9517 22.8655ZM15.0016 21.9008C15.3359 22.3124 15.7157 22.5583 16.141 22.6383C16.5664 22.7184 17.0025 22.6648 17.4494 22.4776C17.8986 22.2933 18.3289 22.0107 18.7402 21.6297C19.1487 21.2513 19.4701 20.8377 19.7045 20.3888C19.944 19.9402 20.0581 19.4842 20.0469 19.0206C20.0356 18.557 19.8628 18.1194 19.5285 17.7078C19.1918 17.2932 18.8082 17.0457 18.3777 16.9653C17.9496 16.8878 17.5096 16.9425 17.0575 17.1293C16.6106 17.3166 16.1829 17.5994 15.7744 17.9777C15.3631 18.3587 15.0391 18.7721 14.8024 19.2181C14.568 19.667 14.4579 20.122 14.4719 20.583C14.4883 21.0469 14.6649 21.4862 15.0016 21.9008ZM22.7136 25.1734L18.9119 28.6946L17.841 27.3758L24.2437 21.4454L25.2717 22.7112L24.2296 23.6765L24.2977 23.7603C24.7633 23.6021 25.2338 23.5939 25.7093 23.7357C26.1871 23.8804 26.6326 24.2071 27.0457 24.7158C27.4206 25.1775 27.6573 25.6667 27.7556 26.1836C27.8567 26.6978 27.8057 27.2166 27.6024 27.7397C27.3991 28.2629 27.0335 28.769 26.5055 29.2581L22.4329 33.0302L21.3619 31.7114L25.2845 28.0783C25.7485 27.6484 26.0073 27.1846 26.0608 26.6868C26.1171 26.1865 25.9637 25.7129 25.6007 25.2659C25.3524 24.9601 25.069 24.746 24.7505 24.6237C24.4344 24.5043 24.0994 24.4875 23.7454 24.5732C23.3966 24.6593 23.0526 24.8594 22.7136 25.1734ZM32.8402 32.0308L31.8397 32.9575L28.8346 29.257L29.835 28.3303L32.8402 32.0308ZM32.1749 27.9019L33.2459 29.2207L27.1891 34.8306C26.9473 35.0546 26.7963 35.2614 26.7362 35.4511C26.6787 35.6382 26.6768 35.8127 26.7302 35.9744C26.7888 36.1365 26.8766 36.2896 26.9936 36.4337C27.0796 36.5395 27.1618 36.6257 27.2401 36.6922C27.3185 36.7588 27.3797 36.8102 27.4239 36.8466L26.5877 38.0384C26.4978 37.9877 26.3817 37.9047 26.2393 37.7893C26.0941 37.6764 25.9342 37.5155 25.7594 37.3063C25.4721 36.9645 25.2678 36.587 25.1465 36.1738C25.0252 35.7607 25.0172 35.343 25.1224 34.921C25.2276 34.4989 25.4734 34.109 25.8597 33.7512L32.1749 27.9019ZM32.6129 37.3632L28.8113 40.8844L27.7403 39.5656L36.2773 31.6584L37.3339 32.9595L34.1576 35.9016L34.2256 35.9854C34.6992 35.825 35.1699 35.814 35.6378 35.9525C36.1057 36.091 36.5534 36.4234 36.9809 36.9497C37.3581 37.4143 37.5974 37.9038 37.6985 38.418C37.802 38.9352 37.7521 39.4554 37.5489 39.9786C37.3508 40.5021 36.9849 41.011 36.4514 41.5052L32.3788 45.2774L31.3078 43.9586L35.2303 40.3254C35.7 39.8904 35.9602 39.4253 36.0109 38.9301C36.0643 38.4324 35.906 37.9556 35.5359 37.4998C35.2828 37.1882 34.9934 36.9667 34.6677 36.8356C34.3445 36.7073 34.0047 36.6846 33.6483 36.7674C33.2971 36.8506 32.9519 37.0492 32.6129 37.3632ZM43.4159 40.4487L34.8789 48.356L33.8079 47.0372L42.3449 39.13L43.4159 40.4487ZM34.5956 53.1877C34.4356 52.9906 34.3053 52.7971 34.2045 52.6071C34.101 52.4196 34.0336 52.2708 34.0025 52.1605L35.2817 51.5321C35.4163 51.8298 35.5643 52.0689 35.7254 52.2494C35.8866 52.4299 36.0882 52.5342 36.3302 52.5625C36.5747 52.5937 36.884 52.5339 37.2582 52.3831L37.8159 52.1524L42.2891 43.666L43.4352 45.0774L39.8598 51.3954L39.9171 51.466L46.2792 48.5794L47.429 49.9952L37.9044 53.9253C37.4659 54.1048 37.0501 54.2013 36.657 54.215C36.2612 54.2313 35.8927 54.1553 35.5516 53.987C35.2104 53.8187 34.8917 53.5523 34.5956 53.1877Z" fill="white"/>
</svg>
