<svg width="40" height="41" viewBox="0 0 40 41" fill="none" xmlns="http://www.w3.org/2000/svg">
<rect y="0.947266" width="40" height="40" rx="16" fill="#7F56D9"/>
<path d="M13.985 24.6623C14.0137 24.4039 14.0281 24.2747 14.0672 24.1539C14.1019 24.0467 14.1509 23.9448 14.2129 23.8507C14.2828 23.7448 14.3747 23.6528 14.5586 23.469L22.8125 15.215C23.5029 14.5247 24.6222 14.5247 25.3125 15.215C26.0029 15.9054 26.0029 17.0247 25.3125 17.715L17.0586 25.969C16.8747 26.1528 16.7828 26.2448 16.6768 26.3146C16.5828 26.3766 16.4808 26.4256 16.3737 26.4603C16.2529 26.4994 16.1237 26.5138 15.8652 26.5425L13.75 26.7775L13.985 24.6623Z" stroke="white" stroke-linecap="round" stroke-linejoin="round"/>
</svg>
