<svg width="64" height="64" viewBox="0 0 64 64" fill="none" xmlns="http://www.w3.org/2000/svg">
<rect width="64" height="64" rx="32" fill="#7F56D9"/>
<path d="M30.32 23.9974H26.992C25.2446 23.9974 24.371 23.9974 23.7035 24.3235C23.1165 24.6104 22.6392 25.0682 22.3401 25.6312C22 26.2712 22 27.1091 22 28.7849V37.1631C22 38.8389 22 39.6768 22.3401 40.3169C22.6392 40.8799 23.1165 41.3376 23.7035 41.6245C24.371 41.9506 25.2446 41.9506 26.992 41.9506H35.728C37.4754 41.9506 38.349 41.9506 39.0165 41.6245C39.6035 41.3376 40.0808 40.8799 40.3799 40.3169C40.72 39.6768 40.72 38.8389 40.72 37.1631V33.9714M31.36 28.9844H35.52V32.974M35 24.4961V23M39.0969 25.554L40.2 24.4961M40.2107 29.4831H41.7707M22 34.3176C22.678 34.418 23.3727 34.4701 24.08 34.4701C28.6418 34.4701 32.6759 32.3034 35.1245 28.9844" stroke="white" stroke-width="2" stroke-linecap="round" stroke-linejoin="round"/>
</svg>
