<svg width="33" height="32" viewBox="0 0 33 32" fill="none" xmlns="http://www.w3.org/2000/svg">
<rect x="0.5" width="32" height="32" rx="16" fill="#7F56D9"/>
<path d="M14.9888 17.5217C14.9888 17.5217 15.8566 18.4792 17.3029 18.4792C18.7493 18.4792 19.6171 17.5217 19.6171 17.5217M19.1212 14.33H19.1278M15.4846 14.33H15.4913M17.3029 21.3517C20.4068 21.3517 22.923 18.9225 22.923 15.9259C22.923 12.9292 20.4068 10.5 17.3029 10.5C14.199 10.5 11.6828 12.9292 11.6828 15.9259C11.6828 16.5323 11.7859 17.1155 11.976 17.66C12.0475 17.8649 12.0833 17.9674 12.0897 18.0461C12.0961 18.1238 12.0913 18.1783 12.0714 18.2539C12.0512 18.3304 12.0067 18.41 11.9176 18.5691L10.8361 20.5017C10.6819 20.7774 10.6047 20.9152 10.622 21.0216C10.637 21.1142 10.6935 21.1958 10.7765 21.2446C10.8717 21.3007 11.0331 21.2846 11.3559 21.2524L14.7418 20.9145C14.8444 20.9043 14.8957 20.8991 14.9424 20.9009C14.9883 20.9026 15.0208 20.9067 15.0656 20.9167C15.1112 20.9268 15.1685 20.9482 15.2831 20.9908C15.9099 21.2239 16.591 21.3517 17.3029 21.3517ZM19.4518 14.33C19.4518 14.5063 19.3037 14.6492 19.1212 14.6492C18.9386 14.6492 18.7906 14.5063 18.7906 14.33C18.7906 14.1538 18.9386 14.0109 19.1212 14.0109C19.3037 14.0109 19.4518 14.1538 19.4518 14.33ZM15.8152 14.33C15.8152 14.5063 15.6672 14.6492 15.4846 14.6492C15.3021 14.6492 15.1541 14.5063 15.1541 14.33C15.1541 14.1538 15.3021 14.0109 15.4846 14.0109C15.6672 14.0109 15.8152 14.1538 15.8152 14.33Z" stroke="white" stroke-width="1.2" stroke-linecap="round" stroke-linejoin="round"/>
</svg>
