<svg width="59" height="7" viewBox="0 0 59 7" fill="none" xmlns="http://www.w3.org/2000/svg">
<path d="M0.901966 6.58106L1.32542 2.84564L5.5605 1.28291L9.89722 2.8111L10.323 6.5778L10.7073 6.58106L10.7424 2.02778L5.5605 0.583008L0.48202 2.04994L0.478516 6.58106H0.901966Z" fill="#B39DDB"/>
<path d="M19.7531 4.20056C19.5826 4.11584 19.3892 4.05132 19.1725 4.00701C18.9564 3.9627 18.7345 3.92555 18.5067 3.89622C18.3473 3.87537 18.1966 3.85061 18.0546 3.82324C17.9127 3.79587 17.7883 3.75872 17.682 3.71245C17.5757 3.66618 17.4916 3.60688 17.4291 3.53454C17.3666 3.46286 17.3351 3.37553 17.3351 3.27452C17.3351 3.15201 17.3795 3.05034 17.4688 2.96953C17.5576 2.88938 17.6791 2.82812 17.8327 2.78576C17.9863 2.74341 18.1598 2.72255 18.3531 2.72255C18.5312 2.72255 18.7041 2.74471 18.8706 2.78902C19.0376 2.83334 19.193 2.89981 19.3373 2.98909C19.4815 3.07772 19.6083 3.18785 19.7186 3.31884L20.1509 2.72842C20.037 2.57592 19.8927 2.44624 19.7186 2.33806C19.544 2.22988 19.3448 2.14647 19.1211 2.08716C18.8974 2.02786 18.6492 1.99854 18.3759 1.99854C18.1177 1.99854 17.8782 2.02916 17.6563 2.09042C17.4344 2.15168 17.2393 2.23966 17.0705 2.3537C16.9017 2.46774 16.7708 2.60851 16.678 2.77599C16.5851 2.94347 16.5384 3.13441 16.5384 3.35012C16.5384 3.54888 16.5781 3.72353 16.6581 3.87406C16.7376 4.0246 16.8515 4.15233 16.9992 4.2579C17.147 4.36348 17.3263 4.4495 17.5366 4.51467C17.7468 4.58049 17.981 4.63001 18.2392 4.6639C18.3303 4.67237 18.4325 4.6828 18.5464 4.69584C18.6603 4.70822 18.7742 4.72646 18.8875 4.74992C19.0014 4.77338 19.1054 4.80401 19.2006 4.84181C19.2952 4.87961 19.3711 4.92979 19.4284 4.99104C19.485 5.0523 19.5136 5.12985 19.5136 5.22239C19.5136 5.37488 19.4587 5.4974 19.3489 5.59059C19.2391 5.68378 19.1013 5.7522 18.9366 5.79717C18.7719 5.84148 18.6019 5.86364 18.4273 5.86364C18.1236 5.86364 17.8339 5.80108 17.557 5.67661C17.2802 5.55214 17.0068 5.35403 16.7376 5.08293L16.3281 5.76198C16.4987 5.93533 16.6873 6.08391 16.8941 6.20643C17.1008 6.32894 17.3292 6.42213 17.5798 6.48599C17.8304 6.54921 18.1031 6.58114 18.3992 6.58114C18.7783 6.58114 19.1112 6.52184 19.3974 6.40323C19.6836 6.28463 19.9073 6.11649 20.0685 5.89883C20.2297 5.68117 20.3103 5.42376 20.3103 5.12789C20.3103 4.88677 20.2601 4.69323 20.1596 4.54725C20.0592 4.40062 19.9237 4.28527 19.7531 4.20056Z" fill="#B39DDB"/>
<path d="M26.1514 2.83603H27.6869V6.51736H28.4269V2.83603H29.9969V2.07422H26.1514V2.83603Z" fill="#B39DDB"/>
<path d="M38.8098 4.72476C39.0277 4.59573 39.2023 4.42108 39.3332 4.20081C39.464 3.98054 39.5294 3.73356 39.5294 3.4579C39.5294 3.19136 39.4698 2.9535 39.3501 2.74366C39.2304 2.53447 39.0686 2.37025 38.8636 2.25164C38.6585 2.13304 38.4238 2.07373 38.158 2.07373H35.8369V6.51688H36.5594V4.91831H37.7836L38.8636 6.51753L39.7624 6.52405L38.6107 4.82121C38.6796 4.79449 38.7456 4.76256 38.8098 4.72476ZM36.56 2.8173H38.005C38.1417 2.8173 38.2666 2.84727 38.3805 2.90593C38.4944 2.96523 38.5855 3.04343 38.6539 3.14053C38.7222 3.23763 38.7561 3.34972 38.7561 3.4768C38.7561 3.61235 38.7222 3.73356 38.6539 3.84174C38.5855 3.94991 38.4944 4.03659 38.3805 4.10175C38.2666 4.16757 38.1434 4.20016 38.0108 4.20016H36.56V2.8173Z" fill="#B39DDB"/>
<path d="M45.3359 2.84907H46.3884V5.74317H45.3359V6.51736H48.1804V5.74317H47.1279V2.84907H48.1804V2.07422H45.3359V2.84907Z" fill="#B39DDB"/>
<path d="M57.9184 6.51736H58.7092L56.7637 2.07422H55.9787L54.0215 6.51736H54.7837L55.2036 5.56526H57.499L57.9184 6.51736ZM55.5208 4.84842L56.0587 3.62978C56.0926 3.54506 56.1271 3.4636 56.1609 3.3854C56.1948 3.30719 56.2293 3.22769 56.2631 3.14754C56.2947 3.07324 56.3245 2.99635 56.3525 2.91619C56.3794 2.98918 56.4068 3.06151 56.4337 3.13124C56.4641 3.20944 56.4962 3.28764 56.5306 3.36585C56.5645 3.44405 56.6007 3.52551 56.6387 3.61023L57.1836 4.84776H55.5208V4.84842Z" fill="#B39DDB"/>
</svg>
