<svg width="59" height="13" viewBox="0 0 59 13" fill="none" xmlns="http://www.w3.org/2000/svg">
<path d="M12.394 5.22474V8.79488C12.394 9.08966 12.4566 9.29783 12.5818 9.41939C12.707 9.54094 12.9247 9.60135 13.234 9.60135H13.9742V10.4522H13.068C12.5083 10.4522 12.0883 10.3234 11.8081 10.0657C11.5279 9.80806 11.3881 9.38445 11.3881 8.79488V5.22474H10.6035V4.39571H11.3881V2.87012H12.394V4.39571H13.9742V5.22474H12.394Z" fill="#B39DDB"/>
<path d="M16.6096 4.57217C16.9371 4.38075 17.3374 4.28467 17.8091 4.28467V5.32332H17.5434C16.4159 5.32332 15.8526 5.93473 15.8526 7.15826V10.4518H14.8467V4.3953H15.8526V5.37864C16.0294 5.03291 16.282 4.76433 16.6096 4.57217Z" fill="#B39DDB"/>
<path d="M24.058 4.39551V10.452H23.0521V9.55675C22.8607 9.86609 22.5936 10.1077 22.2507 10.281C21.9079 10.4542 21.5302 10.5408 21.1182 10.5408C20.6465 10.5408 20.2229 10.4433 19.8474 10.2482C19.4718 10.0531 19.1748 9.76055 18.9579 9.36969C18.7403 8.97956 18.6318 8.50427 18.6318 7.94382V4.39624H19.6268V7.81135C19.6268 8.40819 19.7775 8.86674 20.0803 9.187C20.3823 9.50726 20.795 9.66811 21.3184 9.66811C21.8563 9.66811 22.2799 9.50216 22.5892 9.17098C22.8985 8.83908 23.0536 8.35724 23.0536 7.72327V4.39624H24.058V4.39551Z" fill="#B39DDB"/>
<path d="M31.0352 7.79932H26.1943C26.2306 8.39616 26.4352 8.86199 26.8078 9.19753C27.1798 9.53308 27.631 9.70049 28.1617 9.70049C28.5962 9.70049 28.9594 9.59931 29.2505 9.39624C29.5417 9.1939 29.7462 8.92313 29.8641 8.58395H30.9472C30.7849 9.16624 30.461 9.63934 29.9747 10.004C29.4885 10.3687 28.8844 10.5514 28.1624 10.5514C27.5874 10.5514 27.0735 10.4225 26.6208 10.1649C26.1673 9.9072 25.8121 9.54035 25.5545 9.06506C25.2968 8.58977 25.168 8.03879 25.168 7.41283C25.168 6.78687 25.2932 6.23734 25.5435 5.76568C25.7939 5.29403 26.1462 4.93156 26.5989 4.67681C27.0524 4.42278 27.5735 4.29541 28.1631 4.29541C28.7381 4.29541 29.2462 4.4206 29.6887 4.67098C30.1305 4.92137 30.4711 5.26637 30.7113 5.70454C30.9508 6.14271 31.0709 6.63838 31.0709 7.19083C31.0687 7.38298 31.0578 7.58606 31.0352 7.79932ZM29.7753 5.99205C29.6057 5.71546 29.3757 5.50584 29.0846 5.36172C28.7934 5.21833 28.471 5.14628 28.1173 5.14628C27.6092 5.14628 27.1761 5.30859 26.8188 5.63249C26.4614 5.95711 26.2568 6.4062 26.2052 6.9812H30.0293C30.0301 6.59835 29.9449 6.26863 29.7753 5.99205Z" fill="#B39DDB"/>
<path d="M34.2211 9.524L36.0997 4.39551H37.1718L34.7954 10.452H33.6235L31.2471 4.39551H32.3301L34.2211 9.524Z" fill="#B39DDB"/>
<path d="M38.7947 10.1651C38.334 9.90745 37.973 9.5406 37.7117 9.06531C37.4504 8.59002 37.3193 8.03903 37.3193 7.41308C37.3193 6.7944 37.454 6.24704 37.7226 5.77175C37.9912 5.29646 38.358 4.93181 38.8224 4.67778C39.2867 4.42376 39.8057 4.29639 40.3807 4.29639C40.9557 4.29639 41.4747 4.42376 41.939 4.67778C42.4034 4.93181 42.7695 5.295 43.0388 5.76666C43.3074 6.23831 43.4421 6.78711 43.4421 7.4138C43.4421 8.04049 43.3038 8.59075 43.0279 9.06604C42.7513 9.54133 42.3772 9.90817 41.9063 10.1658C41.4346 10.4235 40.9113 10.5523 40.337 10.5523C39.7693 10.5516 39.2554 10.4228 38.7947 10.1651ZM41.3539 9.41323C41.6705 9.24364 41.9267 8.98962 42.1217 8.65043C42.3168 8.31125 42.4143 7.89856 42.4143 7.41235C42.4143 6.92614 42.3183 6.51344 42.1268 6.17426C41.9354 5.83581 41.685 5.58324 41.375 5.41729C41.0656 5.25133 40.7301 5.16836 40.3691 5.16836C40.0008 5.16836 39.6638 5.25133 39.3581 5.41729C39.0524 5.58324 38.8071 5.83581 38.6229 6.17426C38.4388 6.51344 38.3463 6.92614 38.3463 7.41235C38.3463 7.90584 38.4366 8.32217 38.6171 8.66135C38.7976 9.00053 39.0385 9.25237 39.3413 9.41832C39.6434 9.58428 39.9746 9.66725 40.3363 9.66725C40.6973 9.66725 41.0365 9.58282 41.3539 9.41323Z" fill="#B39DDB"/>
<path d="M44.5386 3.21361C44.4061 3.08114 44.3398 2.91882 44.3398 2.7274C44.3398 2.53597 44.4061 2.37366 44.5386 2.24119C44.671 2.10872 44.8333 2.04248 45.0248 2.04248C45.2089 2.04248 45.3654 2.10872 45.4942 2.24119C45.6231 2.37366 45.6878 2.53597 45.6878 2.7274C45.6878 2.91882 45.6231 3.08114 45.4942 3.21361C45.3654 3.34608 45.2089 3.41231 45.0248 3.41231C44.8333 3.41231 44.671 3.34608 44.5386 3.21361ZM45.511 4.39565V10.4522H44.5051V4.39565H45.511Z" fill="#B39DDB"/>
<path d="M46.9671 5.77175C47.2175 5.30374 47.5654 4.94127 48.0116 4.68288C48.4571 4.42522 48.9673 4.29639 49.5423 4.29639C50.2862 4.29639 50.8997 4.4769 51.3823 4.83791C51.8649 5.19893 52.1837 5.69969 52.338 6.34094H51.2549C51.1516 5.97264 50.9507 5.6815 50.6523 5.46751C50.3539 5.25425 49.9834 5.14725 49.5416 5.14725C48.9666 5.14725 48.5029 5.3445 48.1492 5.73827C47.7954 6.13277 47.6186 6.69104 47.6186 7.41308C47.6186 8.14239 47.7954 8.70648 48.1492 9.10389C48.5029 9.50203 48.9673 9.70073 49.5416 9.70073C49.9834 9.70073 50.3517 9.59738 50.6464 9.39139C50.9412 9.18541 51.1436 8.89063 51.2542 8.50704H52.3373C52.1749 9.12572 51.851 9.62139 51.3648 9.99333C50.8786 10.3653 50.2709 10.5516 49.5416 10.5516C48.9666 10.5516 48.4563 10.4228 48.0109 10.1651C47.5647 9.90745 47.2168 9.54279 46.9664 9.07113C46.716 8.59948 46.5908 8.04704 46.5908 7.41308C46.5908 6.78639 46.716 6.23977 46.9671 5.77175Z" fill="#B39DDB"/>
<path d="M58.9044 7.79932H54.0634C54.0998 8.39616 54.3043 8.86199 54.677 9.19753C55.0489 9.53308 55.5002 9.70049 56.0308 9.70049C56.4653 9.70049 56.8285 9.59931 57.1197 9.39624C57.4108 9.1939 57.6153 8.92313 57.7332 8.58395H58.8163C58.654 9.16624 58.3301 9.63934 57.8439 10.004C57.3577 10.3687 56.7535 10.5514 56.0315 10.5514C55.4565 10.5514 54.9426 10.4225 54.4899 10.1649C54.0365 9.9072 53.6813 9.54035 53.4236 9.06506C53.1659 8.58977 53.0371 8.03879 53.0371 7.41283C53.0371 6.78687 53.1623 6.23734 53.4127 5.76568C53.6631 5.29403 54.0153 4.93156 54.4681 4.67681C54.9215 4.42278 55.4427 4.29541 56.0322 4.29541C56.6072 4.29541 57.1153 4.4206 57.5578 4.67098C57.9996 4.92137 58.341 5.26637 58.5805 5.70454C58.8199 6.14271 58.94 6.63838 58.94 7.19083C58.9379 7.38298 58.9269 7.58606 58.9044 7.79932ZM57.6444 5.99205C57.4749 5.71546 57.2449 5.50584 56.9537 5.36172C56.6626 5.21833 56.3401 5.14628 55.9864 5.14628C55.4783 5.14628 55.0453 5.30859 54.6879 5.63249C54.3305 5.95711 54.126 6.4062 54.0743 6.9812H57.8985C57.8992 6.59835 57.814 6.26863 57.6444 5.99205Z" fill="#B39DDB"/>
<path d="M4.84322 0C2.56357 0 0.708984 1.85458 0.708984 4.13424V8.45917C0.708984 10.7388 2.56357 12.5934 4.84322 12.5934C7.12287 12.5934 8.97745 10.7388 8.97745 8.45917V4.13424C8.97672 1.85458 7.12214 0 4.84322 0ZM1.58532 4.13424C1.58532 2.33788 3.04686 0.876342 4.84322 0.876342C6.63957 0.876342 8.10111 2.33788 8.10111 4.13424V8.45917C8.10111 9.05674 7.9388 9.61719 7.65639 10.099C6.00051 8.83911 3.68665 8.83911 2.03077 10.099C1.74836 9.61719 1.58605 9.05674 1.58605 8.45917V4.13424H1.58532ZM2.57085 10.7898C3.91083 9.77732 5.77633 9.77732 7.11559 10.7898C6.52821 11.3626 5.72611 11.7163 4.84322 11.7163C3.96033 11.7163 3.15823 11.3626 2.57085 10.7898Z" fill="#B39DDB"/>
<path d="M4.84346 8.27775C6.15652 8.27775 7.22502 7.20926 7.22502 5.8962C7.22502 4.58314 6.15652 3.51465 4.84346 3.51465C3.53041 3.51465 2.46191 4.58314 2.46191 5.8962C2.46191 7.20926 3.53041 8.27775 4.84346 8.27775ZM4.84346 4.33058C5.7067 4.33058 6.40909 5.03296 6.40909 5.8962C6.40909 6.75944 5.7067 7.46182 4.84346 7.46182C3.98022 7.46182 3.27784 6.75944 3.27784 5.8962C3.27711 5.03296 3.9795 4.33058 4.84346 4.33058Z" fill="#B39DDB"/>
</svg>
