<svg width="25" height="21" viewBox="0 0 25 21" fill="none" xmlns="http://www.w3.org/2000/svg">
<path d="M25 2.43698C24.0798 2.86345 23.088 3.1437 22.0602 3.27773C23.1119 2.63193 23.9245 1.6084 24.3069 0.377731C23.315 0.986975 22.2156 1.41345 21.0564 1.65714C20.1123 0.609244 18.7859 0 17.2801 0C14.4718 0 12.1773 2.3395 12.1773 5.22731C12.1773 5.6416 12.2251 6.0437 12.3088 6.42143C8.05449 6.2021 4.26625 4.11849 1.74474 0.962605C1.30258 1.73025 1.05163 2.63193 1.05163 3.58235C1.05163 5.3979 1.9479 7.0063 3.33413 7.92017C2.48566 7.92017 1.69694 7.67647 1.00382 7.31092V7.34748C1.00382 9.88193 2.77247 12.0021 5.11472 12.4773C4.36272 12.6871 3.57325 12.7163 2.80832 12.5626C3.1329 13.6013 3.76857 14.5102 4.62598 15.1616C5.48339 15.8129 6.51942 16.1738 7.58843 16.1937C5.77633 17.6564 3.53011 18.4471 1.21893 18.4357C0.81262 18.4357 0.40631 18.4113 0 18.3626C2.27055 19.8492 4.97132 20.7143 7.86329 20.7143C17.2801 20.7143 22.4546 12.7454 22.4546 5.83656C22.4546 5.60504 22.4546 5.38571 22.4426 5.1542C23.4465 4.42311 24.3069 3.49706 25 2.43698Z" fill="#A98DE2"/>
</svg>
