<svg width="46" height="13" viewBox="0 0 46 13" fill="none" xmlns="http://www.w3.org/2000/svg">
<path d="M20.1062 3.44824V9.62252H18.6886L18.5757 8.79777C18.1995 9.3853 17.3963 9.78514 16.5684 9.78514C15.138 9.78514 14.2979 8.82283 14.2979 7.3103V3.44824H15.8283V6.7729C15.8283 7.94796 16.2923 8.42299 17.1459 8.42299C18.1118 8.42299 18.5763 7.86053 18.5763 6.68547V3.44824H20.1062Z" fill="#B39DDB"/>
<path d="M21.1982 3.44794H22.6158L22.7164 4.38518C23.0926 3.67292 23.9082 3.26025 24.8489 3.26025C26.5929 3.26025 27.7472 4.52274 27.7472 6.46018C27.7472 8.3848 26.6936 9.78484 24.8489 9.78484C23.9205 9.78484 23.1178 9.4223 22.7287 8.79747V12.4847H21.1982V3.44794ZM24.485 8.40986C25.5639 8.40986 26.2039 7.63465 26.2039 6.53479C26.2039 5.43492 25.5639 4.64747 24.485 4.64747C23.4314 4.64747 22.741 5.4221 22.741 6.53479C22.741 7.64747 23.4314 8.40986 24.485 8.40986Z" fill="#B39DDB"/>
<path d="M29.0141 3.44749V2.69734C29.0141 1.02219 29.9051 0.322754 31.2472 0.322754C31.4853 0.322754 31.7743 0.334994 32.0376 0.385121V1.68491H31.4982C30.7201 1.68491 30.5323 2.08475 30.5323 2.69734V3.44749H32.0124V4.72222H30.5323V9.62177H29.0141V4.72222H28.123V3.44749H29.0141Z" fill="#B39DDB"/>
<path d="M38.6618 3.44824V9.62252H37.2443L37.1314 8.79777C36.7552 9.3853 35.9519 9.78514 35.1241 9.78514C33.6936 9.78514 32.8535 8.82283 32.8535 7.3103V3.44824H34.384V6.7729C34.384 7.94796 34.8479 8.42299 35.7015 8.42299C36.6674 8.42299 37.132 7.86053 37.132 6.68547V3.44824H38.6618Z" fill="#B39DDB"/>
<path d="M43.6427 4.83516H43.0781C41.9742 4.83516 41.2844 5.42269 41.2844 6.62281V9.62281H39.7539V3.46018H41.1966L41.2844 4.36013C41.5477 3.74754 42.1374 3.33545 42.9652 3.33545C43.1788 3.33545 43.3917 3.36051 43.6427 3.42288V4.83516Z" fill="#B39DDB"/>
<path d="M44.3828 9.62177V0.322754H45.901V9.62177H44.3828Z" fill="#B39DDB"/>
<path d="M8.6308 6.41068C7.77137 6.41068 7.07517 5.71648 7.07517 4.86084C7.07517 5.71707 6.37838 6.41068 5.51953 6.41068C6.37896 6.41068 7.07517 7.10487 7.07517 7.96052C7.07517 7.10487 7.77137 6.41068 8.6308 6.41068Z" fill="#B39DDB"/>
<path d="M7.07521 0.29834C3.68722 0.29834 0.94043 3.03489 0.94043 6.41025C0.94043 9.78562 3.68722 12.5222 7.07521 12.5222C10.4632 12.5222 13.21 9.78562 13.21 6.41025C13.21 3.03489 10.4632 0.29834 7.07521 0.29834ZM10.1871 4.86042C10.1871 5.71664 9.49028 6.41025 8.63143 6.41025C9.49087 6.41025 10.1871 7.10445 10.1871 7.96009V9.50993H8.63143C7.772 9.50993 7.0758 8.81574 7.0758 7.96009C7.0758 8.81632 6.37901 9.50993 5.52016 9.50993H3.96453V7.96009C3.96453 7.10386 4.66132 6.41025 5.52016 6.41025C4.66073 6.41025 3.96453 5.71606 3.96453 4.86042V3.31058H5.52016C6.37959 3.31058 7.0758 4.00477 7.0758 4.86042C7.0758 4.00419 7.77259 3.31058 8.63143 3.31058H10.1871V4.86042Z" fill="#B39DDB"/>
</svg>
