<svg width="40" height="41" viewBox="0 0 40 41" fill="none" xmlns="http://www.w3.org/2000/svg">
<rect y="0.947266" width="40" height="40" rx="16" fill="#7F56D9"/>
<path d="M18.2031 19.975C19.5148 19.975 20.5781 18.7936 20.5781 17.3362C20.5781 15.8787 19.5148 14.6973 18.2031 14.6973C16.8914 14.6973 15.8281 15.8787 15.8281 17.3362C15.8281 18.7936 16.8914 19.975 18.2031 19.975Z" fill="#7F56D9"/>
<path d="M25.625 26.5723V25.2528C25.625 24.0232 24.8681 22.99 23.8437 22.6971M21.7656 14.8891C22.636 15.2806 23.25 16.2287 23.25 17.3362C23.25 18.4436 22.636 19.3918 21.7656 19.7832M22.6562 26.5723C22.6562 25.3427 22.6562 24.7279 22.4755 24.243C22.2344 23.5964 21.7721 23.0826 21.1901 22.8148C20.7537 22.6139 20.2004 22.6139 19.0938 22.6139H17.3125C16.2059 22.6139 15.6526 22.6139 15.2161 22.8148C14.6342 23.0826 14.1718 23.5964 13.9308 24.243C13.75 24.7279 13.75 25.3427 13.75 26.5723M20.5781 17.3362C20.5781 18.7936 19.5148 19.975 18.2031 19.975C16.8914 19.975 15.8281 18.7936 15.8281 17.3362C15.8281 15.8787 16.8914 14.6973 18.2031 14.6973C19.5148 14.6973 20.5781 15.8787 20.5781 17.3362Z" stroke="white" stroke-linecap="round" stroke-linejoin="round"/>
</svg>
