<svg width="60" height="9" viewBox="0 0 60 9" fill="none" xmlns="http://www.w3.org/2000/svg">
<path d="M13.8825 7.16206L12.4003 3.0917C12.3294 2.88622 12.1884 2.74193 11.9771 2.65883L11.8135 2.60086V2.50488H14.1711V2.60086L14.0268 2.63951C13.7768 2.71681 13.6931 2.87076 13.7768 3.10136L14.6716 5.82481L15.4703 3.7075L15.2874 3.15869C15.2423 3.01762 15.1959 2.91005 15.1476 2.83662C15.0993 2.76318 15.0368 2.70972 14.9601 2.67816L14.7965 2.60086V2.50488H16.7889V2.60086L16.6542 2.65883C16.5583 2.69748 16.5003 2.74901 16.481 2.81278C16.4616 2.8772 16.4745 2.97318 16.5196 3.10136L17.4047 5.7765L18.3187 3.12069C18.4083 2.8772 18.3606 2.72325 18.1744 2.65883L17.9625 2.60086V2.50488H19.1175V2.60086L18.8862 2.66849C18.7773 2.7007 18.6988 2.7503 18.6505 2.81794C18.6021 2.88557 18.559 2.9764 18.5203 3.09234L17.1348 7.16271H16.6439L15.5759 4.01605L14.4403 7.16271H13.8825V7.16206Z" fill="#B39DDB"/>
<path d="M19.2715 7.13444V7.03846L19.4061 6.99981C19.5343 6.96116 19.6225 6.90383 19.6709 6.82653C19.7192 6.74924 19.743 6.64682 19.743 6.51863V3.5066C19.743 3.37197 19.7192 3.27084 19.6709 3.20321C19.6225 3.13557 19.5343 3.08919 19.4061 3.06343L19.2715 3.03444V2.93846L21.0326 2.37097L21.1286 2.46695L21.0996 3.83318V6.52765C21.0996 6.65584 21.1234 6.7589 21.1717 6.83555C21.22 6.91285 21.3051 6.97018 21.4268 7.00883L21.5228 7.03782V7.13379H19.2715V7.13444ZM20.4071 1.86081C20.1888 1.86081 20.0045 1.79188 19.8538 1.65404C19.7031 1.51619 19.6277 1.34098 19.6277 1.1297C19.6277 0.911978 19.7031 0.734837 19.8538 0.60021C20.0045 0.465584 20.1888 0.397949 20.4071 0.397949C20.6248 0.397949 20.8078 0.465584 20.9559 0.60021C21.1034 0.734837 21.1775 0.911333 21.1775 1.1297C21.1775 1.34162 21.1034 1.51619 20.9559 1.65404C20.8078 1.79188 20.6248 1.86081 20.4071 1.86081Z" fill="#B39DDB"/>
<path d="M23.4278 7.2789C23.1134 7.2789 22.8313 7.24219 22.5807 7.16811C22.3308 7.09468 22.0995 7.00321 21.8876 6.8937L21.8973 5.74841H21.9933L22.3205 6.32556C22.4615 6.58194 22.6174 6.77325 22.7875 6.89821C22.9575 7.02318 23.174 7.08566 23.4368 7.08566C23.7447 7.08566 23.9933 7.01674 24.1827 6.87889C24.3721 6.74104 24.4668 6.55681 24.4668 6.32556C24.4668 6.11364 24.3991 5.94036 24.2645 5.80574C24.1299 5.67111 23.8793 5.54937 23.5141 5.43986L23.1102 5.3149C22.7186 5.1996 22.4107 5.01988 22.1865 4.77575C21.9617 4.53226 21.8496 4.23402 21.8496 3.88103C21.8496 3.45782 22.0164 3.09839 22.3501 2.80337C22.6838 2.50835 23.1617 2.36084 23.784 2.36084C24.0339 2.36084 24.2697 2.38789 24.4913 2.44265C24.7128 2.4974 24.9261 2.5792 25.1309 2.68806L25.0729 3.72707H24.9769L24.6401 3.1306C24.5183 2.91867 24.3979 2.76987 24.2793 2.68291C24.1608 2.59595 23.9824 2.55279 23.7453 2.55279C23.527 2.55279 23.3221 2.61399 23.1295 2.73573C22.9369 2.85748 22.841 3.03075 22.841 3.25556C22.841 3.47393 22.9228 3.6472 23.0864 3.77538C23.25 3.90357 23.4922 4.02274 23.813 4.1316L24.2458 4.25656C24.7077 4.39763 25.0381 4.59216 25.2372 4.83887C25.4362 5.08622 25.5354 5.38253 25.5354 5.72908C25.5354 6.19738 25.3512 6.57292 24.9821 6.85505C24.613 7.13783 24.0951 7.2789 23.4278 7.2789Z" fill="#B39DDB"/>
<path d="M28.2167 2.36084C28.6335 2.36084 28.9897 2.44587 29.2847 2.61592C29.5798 2.78598 29.8059 3.01723 29.963 3.30902C30.1202 3.60082 30.1988 3.9332 30.1988 4.30488C30.1988 4.37573 30.1956 4.44788 30.1891 4.52131C30.1827 4.59539 30.1698 4.66109 30.1505 4.71842H27.2827C27.2892 5.41152 27.4129 5.91009 27.6531 6.21477C27.894 6.51945 28.2515 6.67212 28.7263 6.67212C29.0471 6.67212 29.3066 6.62058 29.5057 6.51817C29.7047 6.41575 29.8909 6.26501 30.0642 6.06597L30.1601 6.15294C29.9611 6.50593 29.6964 6.78162 29.3665 6.98066C29.0361 7.1797 28.6399 7.2789 28.1781 7.2789C27.7227 7.2789 27.3182 7.18099 26.9658 6.98517C26.6128 6.78935 26.3371 6.50915 26.1381 6.14327C25.939 5.7774 25.8398 5.34131 25.8398 4.83436C25.8398 4.3081 25.9551 3.86106 26.1864 3.49196C26.4176 3.12287 26.714 2.84266 27.0766 2.65006C27.4386 2.45682 27.8193 2.36084 28.2167 2.36084ZM28.1878 2.55344C28.0016 2.55344 27.8425 2.60948 27.7111 2.72156C27.5797 2.83364 27.4766 3.03269 27.4032 3.31804C27.3291 3.6034 27.2892 4.00599 27.2827 4.52582H28.9285C28.9923 3.82692 28.9672 3.3232 28.8512 3.01529C28.7366 2.70739 28.515 2.55344 28.1878 2.55344Z" fill="#B39DDB"/>
<path d="M32.021 7.25914L30.3945 7.13418V7.0382L30.4905 7.01888C30.7404 6.9609 30.866 6.80115 30.866 6.5377V1.38903C30.866 1.25441 30.8454 1.15199 30.8036 1.08113C30.7617 1.01092 30.6767 0.962607 30.5485 0.936842L30.4139 0.898192V0.802215L32.1266 0.388672L32.2419 0.474987L32.2033 1.83156V2.80358C32.4152 2.65607 32.6458 2.54528 32.8964 2.47184C33.1463 2.39841 33.4001 2.36105 33.6565 2.36105C34.0224 2.36105 34.3457 2.44608 34.6285 2.61613C34.9106 2.78619 35.1335 3.049 35.2971 3.40521C35.4607 3.76142 35.5426 4.21813 35.5426 4.7766C35.5426 5.33508 35.4511 5.79822 35.2681 6.16731C35.0852 6.53641 34.8417 6.81339 34.537 6.99955C34.2324 7.18571 33.8974 7.27847 33.5315 7.27847C33.2938 7.27847 33.0549 7.24626 32.8146 7.18249C32.5743 7.11872 32.3605 7.02854 32.175 6.91324L32.021 7.25914ZM33.0503 6.95124C33.2558 6.95124 33.4355 6.88747 33.5895 6.75864C33.7435 6.63046 33.8652 6.4108 33.9554 6.09968C34.0449 5.78856 34.09 5.3602 34.09 4.81525C34.09 4.2703 34.0481 3.84967 33.965 3.55465C33.8819 3.25963 33.7647 3.05415 33.614 2.93885C33.4632 2.82355 33.2822 2.76557 33.0703 2.76557C32.7689 2.76557 32.4893 2.84931 32.2329 3.0155V6.71097C32.3547 6.78827 32.4796 6.84753 32.6085 6.88876C32.736 6.93063 32.8835 6.95124 33.0503 6.95124Z" fill="#B39DDB"/>
<path d="M35.7314 7.1343V7.03832L35.8757 6.99967C36.0039 6.96102 36.0922 6.9037 36.1405 6.8264C36.1888 6.7491 36.2126 6.6499 36.2126 6.52816V3.51613C36.2126 3.37506 36.1888 3.27071 36.1405 3.20307C36.0922 3.13543 36.0039 3.08906 35.8757 3.06329L35.7314 3.02464V2.92867L37.3869 2.37083L37.4829 2.46681L37.5698 3.29454V3.37184C37.6594 3.19212 37.7766 3.02722 37.9209 2.87649C38.0652 2.72576 38.2256 2.60208 38.4021 2.5061C38.5786 2.41013 38.7531 2.36182 38.9264 2.36182C39.1699 2.36182 39.3561 2.42945 39.4849 2.56408C39.6131 2.6987 39.6775 2.86876 39.6775 3.07424C39.6775 3.29261 39.615 3.46073 39.49 3.57925C39.3651 3.69778 39.2156 3.75704 39.0424 3.75704C38.7731 3.75704 38.5354 3.62241 38.3299 3.35316L38.3106 3.33383C38.2462 3.2443 38.1728 3.19405 38.089 3.18439C38.0053 3.17473 37.9286 3.21467 37.8578 3.30485C37.7934 3.36282 37.7405 3.43175 37.6987 3.51162C37.6568 3.59214 37.6169 3.68361 37.5782 3.78603V6.47083C37.5782 6.7272 37.6903 6.88824 37.9151 6.95201L38.223 7.03897V7.13495H35.7314V7.1343Z" fill="#B39DDB"/>
<path d="M41.1594 7.27859C40.7871 7.27859 40.4747 7.17295 40.2209 6.96103C39.9671 6.7491 39.8408 6.44442 39.8408 6.04698C39.8408 5.74552 39.9948 5.46789 40.3027 5.21474C40.6106 4.96159 41.095 4.77028 41.7559 4.6421C41.8583 4.62277 41.9736 4.60216 42.1024 4.57962C42.2306 4.55707 42.3652 4.53323 42.5063 4.50747V3.74738C42.5063 3.31129 42.4535 3.00468 42.3478 2.82818C42.2422 2.65168 42.0767 2.56343 41.8525 2.56343C41.6985 2.56343 41.5768 2.61303 41.4866 2.71288C41.3964 2.81272 41.3391 2.98406 41.3133 3.22755L41.294 3.33319C41.2811 3.60888 41.2135 3.81115 41.0917 3.93933C40.97 4.06752 40.8193 4.13193 40.6396 4.13193C40.4727 4.13193 40.3349 4.0804 40.226 3.97798C40.1172 3.87556 40.0624 3.73707 40.0624 3.56444C40.0624 3.30163 40.1539 3.08004 40.3368 2.90032C40.5197 2.72061 40.7619 2.58598 41.0634 2.49644C41.3649 2.40691 41.6921 2.36182 42.0451 2.36182C42.6158 2.36182 43.057 2.50159 43.3682 2.78051C43.6793 3.05943 43.8352 3.51355 43.8352 4.14224V6.26921C43.8352 6.55779 43.9698 6.70208 44.2391 6.70208H44.451L44.5373 6.77938C44.4155 6.93333 44.2822 7.05185 44.1379 7.13559C43.9936 7.21869 43.7901 7.26056 43.5266 7.26056C43.2445 7.26056 43.0216 7.19485 42.858 7.06345C42.6944 6.93204 42.5868 6.75683 42.5359 6.53911C42.3433 6.74459 42.1462 6.91916 41.944 7.06345C41.7417 7.20645 41.4802 7.27859 41.1594 7.27859ZM41.7462 6.69177C41.8744 6.69177 41.9948 6.6615 42.1069 6.60031C42.219 6.53911 42.3523 6.44506 42.5063 6.31623V4.69943C42.4419 4.71231 42.3781 4.72519 42.3137 4.73807C42.2493 4.75096 42.1758 4.76384 42.0921 4.77672C41.7971 4.85402 41.5613 4.9835 41.3848 5.16643C41.2083 5.34937 41.1201 5.59479 41.1201 5.90269C41.1201 6.1655 41.1813 6.36326 41.303 6.49466C41.4254 6.62543 41.5729 6.69177 41.7462 6.69177Z" fill="#B39DDB"/>
<path d="M44.7188 7.13461V7.03864L44.8534 6.99998C45.0775 6.93621 45.1903 6.7784 45.1903 6.52847V3.51644C45.1903 3.37537 45.1677 3.27102 45.1226 3.20338C45.0775 3.13575 44.9912 3.08937 44.863 3.0636L44.7188 3.02496V2.92898L46.3645 2.37114L46.4605 2.46712L46.5378 3.04428C46.762 2.84524 47.0158 2.68162 47.2979 2.55344C47.5801 2.42525 47.859 2.36084 48.1353 2.36084C48.5585 2.36084 48.8844 2.47614 49.1118 2.70739C49.3392 2.93864 49.4532 3.29099 49.4532 3.76572V6.53684C49.4532 6.78677 49.575 6.94459 49.8191 7.00836L49.9054 7.03735V7.13332H47.6342V7.03735L47.7591 6.9987C47.9833 6.92849 48.096 6.77131 48.096 6.52718V3.45718C48.096 3.04685 47.8905 2.84137 47.4802 2.84137C47.1981 2.84137 46.8895 2.98244 46.5565 3.26458V6.5362C46.5565 6.78613 46.6686 6.94395 46.8934 7.00772L46.9803 7.0367V7.13268H44.7188V7.13461Z" fill="#B39DDB"/>
<path d="M52.0586 7.27847C51.6799 7.27847 51.3398 7.19344 51.0383 7.02339C50.7369 6.85333 50.4979 6.59052 50.3214 6.23431C50.1449 5.87809 50.0566 5.42139 50.0566 4.86292C50.0566 4.29864 50.1558 3.83164 50.3549 3.46254C50.5539 3.09345 50.8167 2.81775 51.144 2.63481C51.4712 2.45187 51.8274 2.36041 52.212 2.36041C52.4368 2.36041 52.6513 2.38295 52.8567 2.42804C53.0622 2.47313 53.2445 2.54012 53.4056 2.6303V1.37937C53.4056 1.24474 53.3843 1.14554 53.3431 1.08113C53.3012 1.01736 53.213 0.972269 53.0783 0.946503L52.8954 0.907854V0.811877L54.6468 0.388672L54.7525 0.474987L54.7138 1.82254V6.52804C54.7138 6.65622 54.7364 6.76057 54.7815 6.84109C54.8265 6.92161 54.9096 6.97765 55.0314 7.00921L55.1177 7.0382V7.13418L53.4719 7.23982L53.3856 6.89327C53.2123 7.00857 53.0152 7.10197 52.7936 7.17219C52.574 7.24304 52.3285 7.27847 52.0586 7.27847ZM52.6171 6.92226C52.8864 6.92226 53.1337 6.84238 53.3579 6.68134V2.86091C53.1202 2.70696 52.8767 2.62966 52.6268 2.62966C52.3189 2.62966 52.0554 2.80744 51.8377 3.16366C51.6193 3.51987 51.5105 4.07963 51.5105 4.84295C51.5105 5.60626 51.6129 6.14348 51.8184 6.4546C52.0232 6.76702 52.2899 6.92226 52.6171 6.92226Z" fill="#B39DDB"/>
<path d="M57.0235 7.2789C56.7091 7.2789 56.427 7.24219 56.1764 7.16811C55.9265 7.09468 55.6952 7.00321 55.4833 6.8937L55.493 5.74841H55.589L55.9162 6.32556C56.0572 6.58194 56.2131 6.77325 56.3832 6.89821C56.5532 7.02318 56.7697 7.08566 57.0325 7.08566C57.3404 7.08566 57.589 7.01674 57.7784 6.87889C57.9678 6.74104 58.0625 6.55681 58.0625 6.32556C58.0625 6.11364 57.9948 5.94036 57.8602 5.80574C57.7256 5.67111 57.475 5.54937 57.1098 5.43986L56.7059 5.3149C56.3143 5.1996 56.0064 5.01988 55.7822 4.77575C55.5574 4.53226 55.4453 4.23402 55.4453 3.88103C55.4453 3.45782 55.6121 3.09839 55.9458 2.80337C56.2795 2.50835 56.7574 2.36084 57.3797 2.36084C57.6296 2.36084 57.866 2.38789 58.087 2.44265C58.3085 2.4974 58.5218 2.5792 58.7266 2.68806L58.6686 3.72707H58.5726L58.2358 3.1306C58.114 2.91867 57.9936 2.76987 57.875 2.68291C57.7565 2.59595 57.5781 2.55279 57.341 2.55279C57.1227 2.55279 56.9178 2.61399 56.7252 2.73573C56.5326 2.85748 56.4367 3.03075 56.4367 3.25556C56.4367 3.47393 56.5185 3.6472 56.6821 3.77538C56.8457 3.90357 57.0879 4.02274 57.4087 4.1316L57.8415 4.25656C58.3034 4.39763 58.6338 4.59216 58.8329 4.83887C59.0319 5.08622 59.1311 5.38253 59.1311 5.72908C59.1311 6.19738 58.9469 6.57292 58.5778 6.85505C58.2087 7.13783 57.6908 7.2789 57.0235 7.2789Z" fill="#B39DDB"/>
<path d="M3.98896 3.29395C3.3358 3.29395 2.80566 3.82343 2.80566 4.47724C2.80566 5.13041 3.33515 5.66054 3.98896 5.66054C4.64213 5.66054 5.17226 5.13105 5.17226 4.47724C5.17226 3.82343 4.64277 3.29395 3.98896 3.29395ZM4.27818 4.46307C4.0727 4.46307 3.90651 4.29688 3.90651 4.0914C3.90651 3.88592 4.0727 3.71973 4.27818 3.71973C4.48367 3.71973 4.64986 3.88592 4.64986 4.0914C4.64986 4.29688 4.48367 4.46307 4.27818 4.46307Z" fill="#B39DDB"/>
<path d="M7.75068 3.29395C7.09752 3.29395 6.56738 3.82343 6.56738 4.47724C6.56738 5.13041 7.09687 5.66054 7.75068 5.66054C8.40385 5.66054 8.93398 5.13105 8.93398 4.47724C8.93333 3.82343 8.40385 3.29395 7.75068 3.29395ZM7.27466 4.46307C7.06918 4.46307 6.90298 4.29688 6.90298 4.0914C6.90298 3.88592 7.06918 3.71973 7.27466 3.71973C7.48014 3.71973 7.64633 3.88592 7.64633 4.0914C7.64633 4.29688 7.48014 4.46307 7.27466 4.46307Z" fill="#B39DDB"/>
<path d="M10.8389 0.397949C10.0595 1.46981 7.94156 1.40024 7.94156 1.40024L7.94285 1.40153C7.27165 1.36159 6.5895 1.53938 6.01299 1.93488C6.01234 1.93488 6.01234 1.93553 6.0117 1.93553C5.99495 1.94712 5.97756 1.95872 5.96145 1.97096C5.9344 1.99028 5.90735 2.01025 5.88094 2.03086C5.87321 2.03601 5.86999 2.03923 5.86999 2.03923C5.26513 1.5703 4.525 1.35773 3.79712 1.40088L3.79776 1.40024C3.79776 1.40024 1.67981 1.46981 0.900391 0.397949C0.900391 0.397949 0.900391 3.58776 0.900391 4.47669C0.900391 5.26641 1.20121 6.05614 1.8022 6.65713C2.40383 7.25812 3.19291 7.55893 3.98263 7.55893C4.39231 7.55893 4.80199 7.47712 5.18461 7.31544L5.86934 8.50196L6.55407 7.31544C6.93734 7.47712 7.34701 7.55893 7.75605 7.55893C8.54577 7.55893 9.3355 7.25812 9.93649 6.65713C10.417 6.17659 10.7062 5.57432 10.8016 4.94885L10.8022 4.9482C10.8029 4.94369 10.8035 4.93854 10.8042 4.93403C10.8267 4.78202 10.8376 4.62935 10.837 4.47604L10.8376 4.47669C10.8389 3.58776 10.8389 0.397949 10.8389 0.397949ZM10.0003 4.25639C10.008 4.33047 10.0112 4.40519 10.0112 4.47991V4.48249C10.0099 5.05835 9.79026 5.63358 9.3516 6.07224C8.47234 6.9515 7.04169 6.9515 6.16243 6.07224C6.00075 5.91056 5.73858 5.91056 5.5769 6.07224C4.69764 6.9515 3.26699 6.9515 2.38773 6.07224C1.57804 5.26255 1.51491 3.98456 2.19706 3.10079L2.50109 2.77807C3.38615 2.00574 4.735 2.04052 5.57754 2.88307C5.73922 3.04475 6.00139 3.04475 6.16307 2.88307C6.3138 2.73234 6.48064 2.60737 6.65842 2.50817C6.65907 2.50753 6.66035 2.50689 6.661 2.50624C6.66486 2.50431 6.66808 2.50238 6.67195 2.50044C7.48422 2.05534 8.51421 2.14681 9.23694 2.7755L9.54806 3.10594C9.80959 3.44734 9.96096 3.84736 10.0003 4.25639Z" fill="#B39DDB"/>
</svg>
