<svg width="18" height="13" viewBox="0 0 18 13" fill="none" xmlns="http://www.w3.org/2000/svg">
<path d="M11.5568 6.37409L7.21683 8.5218C7.04616 8.61411 6.46838 8.49059 6.46838 8.29667V3.889C6.46838 3.69309 7.05147 3.57023 7.22148 3.66719L11.3755 5.92781C11.5501 6.02676 11.7327 6.27912 11.5568 6.37409ZM17.2488 3.78474C17.2488 1.6948 15.554 2.19228e-06 13.4641 2.19228e-06H3.78474C1.6948 2.19228e-06 0 1.6948 0 3.78474V8.2887C0 10.3793 1.6948 12.0734 3.78474 12.0734H13.4641C15.554 12.0734 17.2488 10.3793 17.2488 8.2887V3.78474Z" fill="#262357"/>
</svg>
