<svg width="18" height="21" viewBox="0 0 18 21" fill="none" xmlns="http://www.w3.org/2000/svg">
<path d="M17.1358 8.103C16.9718 8.11887 16.8078 8.12747 16.6431 8.12813C14.8397 8.12813 13.1574 7.21949 12.1694 5.70972V13.943C12.1694 17.3038 9.44546 20.0284 6.08469 20.0284C2.72393 20.0284 0 17.3038 0 13.943C0 10.5829 2.72393 7.85765 6.08469 7.85765C6.21166 7.85765 6.33599 7.86955 6.46097 7.87749V10.8759C6.33599 10.8606 6.21299 10.8382 6.08469 10.8382C4.36926 10.8382 2.97919 12.2289 2.97919 13.9443C2.97919 15.6591 4.36926 17.0492 6.08469 17.0492C7.80012 17.0492 9.31518 15.6981 9.31518 13.982L9.34493 -4.85377e-06H12.2137C12.4842 2.57248 14.5587 4.58153 17.1384 4.77067V8.103" fill="#262357"/>
</svg>
