<svg width="18" height="15" viewBox="0 0 18 15" fill="none" xmlns="http://www.w3.org/2000/svg">
<path d="M17.3781 1.72203C16.8246 1.97266 16.2116 2.1241 15.6144 2.22462C15.8975 2.17701 16.3141 1.66317 16.4814 1.45552C16.7367 1.13875 16.9483 0.777016 17.0673 0.386845C17.0825 0.357086 17.0938 0.31873 17.0633 0.295584C17.025 0.280374 16.9999 0.288309 16.9694 0.303519C16.3028 0.660625 15.6124 0.920526 14.8771 1.10371C14.8162 1.11892 14.7712 1.1037 14.7329 1.06601C14.6727 0.997232 14.6152 0.932427 14.5504 0.878862C14.2415 0.615661 13.9102 0.409993 13.5366 0.257892C13.0466 0.0575163 12.5102 -0.0264724 11.9819 0.00725431C11.468 0.0403197 10.9634 0.185811 10.5071 0.423882C10.0502 0.662614 9.64216 0.994586 9.31745 1.39534C8.98151 1.80998 8.73352 2.30001 8.60721 2.81914C8.48421 3.31975 8.49478 3.81506 8.56951 4.32162C8.58075 4.40495 8.57347 4.41685 8.49742 4.40495C5.62338 3.97775 3.24135 2.94941 1.30769 0.745276C1.2237 0.650048 1.17807 0.650048 1.1093 0.753212C0.263485 2.02094 0.673505 4.05909 1.73027 5.06031C1.87179 5.19389 2.01662 5.32748 2.17202 5.44916C2.11515 5.46106 1.41218 5.38501 0.785263 5.06031C0.701277 5.0074 0.658953 5.03782 0.65234 5.13305C0.644404 5.2706 0.655636 5.39625 0.674814 5.54504C0.836834 6.83062 1.72762 8.01966 2.94641 8.4839C3.09124 8.54474 3.25127 8.5983 3.408 8.62476C3.13025 8.6856 2.8439 8.72924 2.04703 8.66708C1.94783 8.6479 1.91014 8.6975 1.94783 8.79273C2.54631 10.4248 3.83918 10.9102 4.80668 11.1873C4.93629 11.2098 5.0659 11.2098 5.19618 11.2402C5.18825 11.2515 5.1803 11.2515 5.17237 11.2627C4.85163 11.7527 3.73933 12.1165 3.2202 12.2977C2.27784 12.6277 1.25148 12.7758 0.254893 12.6773C0.0961796 12.6541 0.062449 12.6554 0.0194641 12.6773C-0.0248435 12.7044 0.0135078 12.7427 0.0644284 12.7837C0.26745 12.9173 0.472461 13.0357 0.682095 13.1501C1.31497 13.4854 1.97495 13.7525 2.66469 13.943C6.2265 14.9264 10.2393 14.2042 12.9143 11.5464C15.0139 9.45932 15.7507 6.58132 15.7507 3.7C15.7507 3.58692 15.8842 3.52475 15.9629 3.46523C16.5092 3.05456 16.9503 2.56321 17.3576 2.01433C17.4495 1.89133 17.4502 1.78154 17.4502 1.73658C17.4502 1.72864 17.4502 1.72203 17.4502 1.72203C17.4502 1.67574 17.4495 1.68962 17.3781 1.72203Z" fill="#262357"/>
</svg>
