<svg width="38" height="43" viewBox="0 0 38 43" fill="none" xmlns="http://www.w3.org/2000/svg">
<path d="M37.6816 15.9355C37.4791 14.7431 37.5126 13.5797 37.1704 12.3307C36.8436 11.1364 36.919 9.95738 36.3953 8.67781C35.6584 6.87681 35.0707 5.37857 34.0184 4.06493C33.1737 3.01055 32.1231 2.13914 30.5271 1.57432C29.8215 1.32475 29.314 0.970056 28.2931 0.915149C27.1508 0.854194 26.0302 0.550476 24.8914 0.379323C22.7143 0.0526628 20.9829 0.157678 19.0221 0.0260731C17.3704 -0.0847014 16.1627 0.192139 14.7081 0.211529C12.8718 0.236295 11.8008 0.519567 10.3453 0.764538C9.37545 0.927724 8.55527 0.901134 7.65803 1.48889C6.645 2.15239 5.5877 2.56938 4.69677 3.24401C3.28015 4.31739 2.61965 5.55741 1.99777 7.13138C1.75664 7.74103 1.55766 8.39195 1.40086 9.08443C1.10684 10.3816 1.05292 11.7238 0.657171 12.9732C0.174607 14.4966 0.445004 15.6994 0.334283 17.0188C0.164663 19.04 0.0727784 20.9744 0.00957758 22.9815C-0.0540057 24.9974 0.210654 26.7291 0.458581 28.5893C0.71932 30.5488 0.699719 32.4258 1.56809 34.4315C1.95312 35.3201 2.30613 36.2723 2.73219 37.057C3.39728 38.2817 4.12069 39.2772 5.2498 40.1135C6.11606 40.7551 7.11762 41.2811 8.25246 41.6889C8.63645 41.8273 9.31444 41.8331 9.31444 41.8331C10.0003 41.8897 10.2328 41.473 10.3421 40.3208C10.3603 40.1293 10.3738 39.9374 10.3914 39.7459C10.3943 39.7166 10.5872 37.9403 10.69 37.0692C10.7693 36.4036 10.8504 35.7158 10.9133 35.0376C10.9505 34.6399 10.9558 34.2329 10.9608 33.8391C10.9662 33.46 10.9711 33.0681 11.0047 32.6854C11.0461 32.2153 11.1165 31.7391 11.1847 31.279C11.2394 30.9092 11.294 30.5392 11.3355 30.168C11.4016 29.5701 11.4498 28.9609 11.4963 28.3713C11.517 28.1141 11.537 27.8573 11.5588 27.6007L11.5662 27.5232C11.5712 27.4687 11.577 27.4145 11.5794 27.3596C11.6066 26.7546 11.618 26.1368 11.6288 25.5393C11.6538 24.1569 11.6795 22.7275 11.906 21.3553C12.0256 20.6317 12.0632 19.8972 12.0996 19.1864C12.1368 18.4555 12.1753 17.7 12.3039 16.9641C12.3346 16.7881 12.2914 16.6202 12.1792 16.4782C12.0045 16.2573 11.6759 16.1185 11.2765 16.0966C11.0708 16.0855 10.8636 16.0855 10.6565 16.0852C10.5022 16.0848 10.3478 16.0844 10.1935 16.0798C9.71698 16.0648 9.47087 16.0339 9.3612 15.8976C9.25478 15.7646 9.27515 15.5289 9.33797 15.0983L9.90916 15.1475L12.0642 15.3153C12.2093 15.3274 12.4425 15.4207 12.5179 15.3504C12.5932 15.2804 12.4354 14.7292 12.4354 14.7292C12.3718 14.2497 12.315 13.8241 12.2617 13.3976C12.2496 13.2987 12.2428 13.1979 12.236 13.0978C12.2249 12.9394 12.2146 12.7754 12.1796 12.619C12.1528 12.4964 12.1064 12.3763 12.0613 12.2604C12.0066 12.1195 11.9502 11.9735 11.9306 11.8261C11.9045 11.6371 11.9235 11.4378 11.9417 11.2448C11.9489 11.1699 11.8896 11.0451 11.9428 11.0013C11.9967 10.9568 12.1018 11.063 12.185 11.0909C12.3696 11.1527 12.5607 11.2164 12.6537 11.3442C12.8362 11.5956 12.9072 11.9366 12.9751 12.2662L12.9823 12.2984C13.0638 12.6926 13.1251 13.0963 13.1844 13.4865C13.2052 13.6214 13.2255 13.7555 13.2544 13.8968C13.2666 13.9581 13.3188 14.0065 13.3801 14.0166C13.5698 14.0474 13.7084 14.0647 13.823 14.0647C14.2134 14.0647 14.2999 13.8509 14.4903 13.2331C14.6103 12.8468 14.7385 12.4631 14.8693 12.0719L14.989 11.681C15.0105 11.6114 15.074 11.5634 15.1469 11.5616L15.6813 11.5189C15.8738 11.4999 16.0231 11.4375 16.0039 11.5465C15.9275 11.7806 15.8989 11.9994 15.7814 12.2394C15.5235 12.7662 15.4349 13.3267 15.2438 13.8545C15.1645 14.0733 15.0512 14.2845 14.9419 14.4886C14.8709 14.6209 14.8001 14.7526 14.7376 14.8877C14.6483 15.0796 14.6483 15.2822 14.7365 15.444C14.8251 15.605 14.9888 15.7086 15.1973 15.7352C15.8706 15.8213 16.5451 15.898 17.2202 15.9751C17.7157 16.0314 18.2407 16.0734 18.7358 16.1332C19.5002 16.2261 20.2268 16.4094 20.9904 16.5076L21.972 16.5635C22.0566 16.5682 22.1413 16.5775 22.2257 16.5908L23.2451 16.7658C23.8774 16.8755 24.3711 16.9021 24.8487 16.9229C25.4516 17.0173 25.9964 17.0578 26.4621 17.0754C26.5772 17.0954 26.6911 17.1144 26.8015 17.1237C27.3666 17.1718 27.9295 17.175 28.4953 17.2636C28.7382 17.4078 28.9468 17.6384 29.0725 17.9744C29.1493 18.1813 29.199 18.3832 29.2283 18.5794C29.2347 18.8114 29.2347 19.0442 29.2286 19.2758C29.1237 19.9335 28.7093 20.4696 28.0327 20.7805C27.3901 20.9057 26.7514 21.0427 26.1317 21.198C25.7341 21.2974 25.3358 21.4214 24.9508 21.5412C24.6839 21.6244 24.4174 21.7073 24.1489 21.7833C23.817 21.8773 23.4801 21.9593 23.1437 22.0415C22.4578 22.209 21.7488 22.3822 21.0944 22.6565C20.1939 23.0338 19.2502 23.2368 18.3374 23.4333L18.0374 23.4978C17.8438 23.5401 17.697 23.884 17.5845 24.1479C17.5373 24.2584 17.5484 24.3936 17.5598 24.5245C17.5645 24.5815 17.5691 24.6389 17.5691 24.6941V25.3765L17.587 25.378C17.5691 25.4891 17.5577 25.5992 17.5637 25.7079C17.572 25.8643 17.5794 26.0203 17.5873 26.1766C17.6883 28.1702 17.4161 29.6975 17.5873 32.1548C17.5976 32.3046 17.559 32.4546 17.5451 32.6049C17.5337 32.7247 17.5243 32.8444 17.5111 32.9646C17.4805 33.2389 17.4679 33.5154 17.4597 33.7922C17.4319 34.7762 17.5157 35.7732 17.5258 36.7619C17.5379 37.9643 17.6811 40.9509 17.6826 40.9714C17.6808 41.0811 17.679 41.1912 17.6776 41.3009C17.668 42.0892 17.9258 42.5187 18.576 42.6454C18.576 42.6454 19.8673 43.0104 26.7432 42.3782C29.0982 42.1619 31.3618 41.8564 32.5199 40.4202C33.4018 39.3267 34.4066 38.914 35.1174 37.5856C35.61 36.6643 35.9065 35.6301 36.3308 34.5747C37.0099 32.8841 37.3525 31.2104 37.6268 29.1929C37.8311 27.6863 37.7961 26.1131 37.8857 24.6054C37.9768 23.0781 37.8093 21.8333 37.9575 20.0219C38.0466 18.9314 38.0137 17.8943 37.6816 15.9355ZM36.371 28.2759C36.1592 29.9129 35.7506 31.7638 35.3887 33.3887C35.0343 34.9802 33.8974 36.1726 33.3333 37.4468C32.7853 38.6847 29.7559 40.9419 26.6878 41.2525C25.5544 41.3676 24.2449 41.2281 23.1246 41.2984C22.1756 41.3579 21.2264 41.4171 20.2795 41.5017C20.1809 41.5104 20.0891 41.515 20.0019 41.515C19.6257 41.515 19.3589 41.4303 19.1871 41.2567C18.981 41.0483 18.8874 40.6973 18.8913 40.1515C18.8963 39.4483 18.7763 36.9314 18.7763 36.9314C18.7934 36.1973 18.7931 35.4633 18.8002 34.7288C18.8013 34.6482 18.8052 34.5675 18.8031 34.4867C18.7984 34.3433 18.7895 34.1994 18.7835 34.056C18.7674 33.6623 18.7506 33.2681 18.7285 32.8733C18.7071 32.4928 18.6846 32.112 18.6657 31.7315V28.6624C18.6686 28.6155 18.6707 28.5685 18.6729 28.5211C18.7911 27.299 18.6751 26.0925 18.7021 24.8869L18.7182 24.8908C18.7939 24.7355 18.9303 24.5512 19.085 24.4989C19.3766 24.3995 19.682 24.3246 19.9773 24.2522C20.2174 24.1933 20.466 24.1324 20.706 24.0589C21.0686 23.9473 21.4279 23.8254 21.7873 23.7027C22.1563 23.5773 22.5367 23.4503 22.9164 23.3348C23.2707 23.2354 23.6251 23.1375 23.979 23.0375C24.2083 22.9776 24.4377 22.9191 24.6635 22.8625C25.0078 22.7754 25.3525 22.6886 25.6954 22.596C26.0341 22.5047 26.3745 22.3977 26.7041 22.2944L27.0278 22.1933C27.1628 22.1517 27.2975 22.1072 27.4315 22.0627C27.4747 22.0484 27.519 22.0348 27.5629 22.0204C27.7854 21.9573 28.008 21.8938 28.2305 21.831C28.2727 21.8192 28.3095 21.8084 28.3498 21.7969C29.7044 21.4096 30.0787 21.1776 30.1462 20.2057C30.1592 20.0189 30.1616 19.8048 30.157 19.557C30.1551 19.4691 30.153 19.3795 30.1502 19.2831C30.0841 17.1787 30.0998 16.4952 28.8135 16.2395C28.4806 16.1735 28.0651 16.1344 27.5325 16.1089C27.5247 16.1085 27.5165 16.1079 27.5083 16.1071C27.449 16.101 27.39 16.096 27.3311 16.0895C26.1387 15.9557 24.9336 15.8876 23.7422 15.7417C23.2529 15.6818 22.777 15.5494 22.2884 15.4842C21.6772 15.4028 21.0635 15.3888 20.4513 15.3175C19.8012 15.2418 19.1528 15.1066 18.502 15.0384C17.8604 14.9717 17.2622 14.9674 16.622 14.8932C16.4395 14.8721 16.2644 14.7393 16.1977 14.6281C16.1331 14.5209 16.132 14.3778 16.1952 14.2143C16.287 13.9766 16.3891 13.7427 16.4921 13.5089C16.6421 13.166 16.7982 12.8118 16.9139 12.4506C17.0397 12.0589 17.0339 11.9108 17.1111 11.5143C17.145 11.3399 17.3265 10.9319 17.2883 10.7127C17.2911 10.5636 17.0618 10.5349 16.9561 10.5162C16.76 10.4822 16.6292 10.4392 16.4835 10.4417C15.9777 10.4499 15.2176 10.2003 14.8832 10.2003C14.3227 10.2003 14.3778 10.5005 14.0391 10.9682C14.0058 11.0137 13.9362 11.0026 13.9198 10.9485C13.6566 10.0896 13.5772 10.0778 12.4506 10.0286L12.327 10.0243C12.1063 10.0175 11.878 10.011 11.697 9.92167C11.4459 9.79832 11.2523 9.73881 11.1047 9.73881C10.9922 9.73881 10.9057 9.77221 10.8401 9.84171C10.7265 9.96256 10.6811 10.1952 10.7004 10.5543C10.7321 11.1212 10.8065 11.6953 10.879 12.2505C10.9086 12.4732 10.9372 12.6963 10.964 12.9193C10.9689 12.9631 10.9883 13.004 11.0068 13.0441L11.0276 13.0914C11.0276 13.0914 11.484 14.0023 11.4502 14.0859C11.4166 14.1691 10.9151 14.0547 10.6701 14.0446C10.1468 14.0231 9.69422 14.0041 9.25698 13.9037C9.11834 13.8718 8.98802 13.8556 8.86907 13.8556C8.35075 13.8556 8.06353 14.1608 8.05961 14.7144C8.0575 14.9931 8.05817 15.2714 8.05884 15.5501L8.05961 15.8631C8.05961 16.7101 8.25963 16.9218 9.12838 16.9949C9.61094 17.0354 10.0921 17.1143 10.6019 17.1976C10.8227 17.2335 11.0491 17.269 11.2731 17.2858C11.2888 17.2879 11.2163 17.1631 11.3192 17.293C11.4227 17.4228 11.227 17.5745 11.177 17.7097C11.0716 17.9977 10.9723 18.2695 10.9667 18.5463C10.917 20.8616 10.8306 23.3249 10.3744 25.7463C10.2154 26.5919 10.1865 27.4759 10.1583 28.3309C10.1451 28.7286 10.1318 29.126 10.1065 29.5212L10.0172 30.8721C10.0168 30.8793 10.0164 30.8868 10.0162 30.894C9.96653 31.6359 9.91758 32.3772 9.87082 33.1191C9.84902 33.4623 9.83831 33.8044 9.82799 34.1465C9.80265 34.9714 9.77616 35.8242 9.58513 36.6737C9.52508 36.9405 9.48263 37.2123 9.4483 37.486C9.41828 37.8507 9.38826 38.215 9.3569 38.5798C9.3569 38.5798 9.15869 39.4892 9.13899 39.7051C9.08545 40.2979 8.94251 40.417 8.72929 40.417C8.6025 40.417 8.43355 40.3701 8.22779 40.2775C7.64952 40.0179 7.0547 39.7952 6.56889 39.4871C5.23938 38.643 4.31747 37.552 3.65983 36.3173C3.36544 35.7643 3.23942 34.942 3.07506 34.3055C2.86968 33.5116 2.58073 32.9441 2.41389 32.1466C2.11452 30.7183 1.81238 29.4158 1.63626 27.9777C1.49265 26.8029 1.4545 25.4936 1.39263 24.3137C1.28545 22.2635 1.54122 20.2943 1.68196 18.2337C1.7902 16.6537 1.73264 14.9843 1.98668 13.4017C2.13422 12.4822 2.44429 11.6792 2.64107 10.7594C2.78324 10.0967 2.80036 9.31702 2.96787 8.65429C3.20643 7.70897 3.71835 6.8365 4.17127 6.08229C4.80777 5.02292 5.48759 4.17656 6.52385 3.51499C7.5605 2.85265 8.81314 2.44699 10.2227 2.20787C11.5115 1.9891 12.8257 1.62117 14.1052 1.49705C15.7644 1.33607 17.3611 1.39991 18.9796 1.39991C20.2605 1.39991 21.3293 1.60255 22.6006 1.70334C23.5307 1.77754 24.6674 1.72666 25.5872 1.85395C26.4119 1.96875 27.3143 1.982 28.1269 2.13904C28.9973 2.30761 29.7125 2.68236 30.4355 3.01833C31.1592 3.35401 31.64 3.93035 32.2144 4.43161C32.6491 4.81107 33.2092 5.07927 33.5578 5.55232C34.0001 6.15265 34.3733 6.82862 34.6762 7.57918C34.9156 8.17126 35.2831 8.76727 35.4346 9.45256C35.5489 9.96928 35.4842 10.5287 35.5839 11.0455C35.8868 12.617 35.9797 14.2121 36.2872 15.7638C36.6677 17.6835 36.3719 19.1768 36.3937 20.8473C36.427 23.4001 36.6986 25.7397 36.371 28.2759Z" fill="white"/>
</svg>
