<svg width="80" height="90" viewBox="0 0 80 90" fill="none" xmlns="http://www.w3.org/2000/svg">
<g clip-path="url(#clip0_18_42)">
<path d="M79.0771 33.6215C78.6535 31.1273 78.7237 28.6939 78.0079 26.0812C77.3243 23.5832 77.4819 21.1169 76.3865 18.4403C74.8451 14.6731 73.6159 11.5392 71.4147 8.79136C69.6477 6.58588 67.4501 4.76311 64.1117 3.58166C62.6359 3.0596 61.5743 2.31768 59.4387 2.20283C57.0493 2.07533 54.7053 1.44003 52.3233 1.08202C47.7693 0.398731 44.1477 0.618396 40.0463 0.343113C36.5913 0.111401 34.0651 0.69048 31.0225 0.731039C27.1813 0.782843 24.9411 1.37538 21.8965 1.88779C19.8679 2.22914 18.1523 2.17352 16.2755 3.40295C14.1565 4.79082 11.9449 5.66305 10.0813 7.0742C7.11807 9.31944 5.73647 11.9132 4.43567 15.2056C3.93127 16.4808 3.51507 17.8424 3.18707 19.2909C2.57207 22.0042 2.45927 24.8118 1.63147 27.4253C0.62207 30.6118 1.18767 33.1277 0.95607 35.8876C0.60127 40.1154 0.40907 44.1616 0.27687 48.3601C0.14387 52.5767 0.69747 56.1989 1.21607 60.0901C1.76147 64.1888 1.72047 68.115 3.53687 72.3105C4.34227 74.1693 5.08067 76.1609 5.97187 77.8024C7.36307 80.364 8.87627 82.4464 11.2381 84.1957C13.0501 85.5378 15.1451 86.6381 17.5189 87.4911C18.3221 87.7806 19.7403 87.7927 19.7403 87.7927C21.1749 87.9111 21.6613 87.0395 21.8899 84.6294C21.9279 84.2289 21.9563 83.8275 21.9931 83.4269C21.9991 83.3655 22.4025 79.65 22.6177 77.8279C22.7835 76.4356 22.9531 74.9969 23.0847 73.5783C23.1625 72.7465 23.1735 71.8951 23.1841 71.0713C23.1953 70.2784 23.2057 69.4585 23.2759 68.6582C23.3625 67.6747 23.5097 66.6786 23.6525 65.7162C23.7669 64.9427 23.8811 64.1687 23.9679 63.3922C24.1061 62.1417 24.2069 60.8673 24.3041 59.6341C24.3475 59.0961 24.3893 58.559 24.4349 58.0221L24.4505 57.8601C24.4609 57.746 24.4729 57.6328 24.4781 57.5179C24.5349 56.2524 24.5587 54.9601 24.5813 53.7103C24.6337 50.8186 24.6873 47.8286 25.1611 44.9585C25.4113 43.4447 25.4899 41.9085 25.5661 40.4216C25.6439 38.8928 25.7245 37.3124 25.9935 35.7731C26.0577 35.4049 25.9673 35.0537 25.7327 34.7567C25.3673 34.2947 24.6799 34.0044 23.8445 33.9586C23.4141 33.9353 22.9807 33.9353 22.5475 33.9347C22.2247 33.9339 21.9019 33.9331 21.5791 33.9235C20.5823 33.8919 20.0675 33.8275 19.8381 33.5424C19.6155 33.2641 19.6581 32.7711 19.7895 31.8704L20.9843 31.9732L25.4921 32.3242C25.7955 32.3497 26.2833 32.5446 26.4411 32.3977C26.5987 32.2513 26.2685 31.0984 26.2685 31.0984C26.1355 30.0954 26.0167 29.2051 25.9053 28.313C25.8799 28.106 25.8657 27.8951 25.8515 27.6859C25.8283 27.3544 25.8067 27.0115 25.7335 26.6844C25.6775 26.4278 25.5803 26.1766 25.4861 25.9342C25.3717 25.6395 25.2537 25.3341 25.2127 25.0259C25.1581 24.6305 25.1977 24.2135 25.2359 23.8099C25.2509 23.6531 25.1269 23.392 25.2381 23.3005C25.3509 23.2075 25.5707 23.4296 25.7447 23.488C26.1309 23.6171 26.5307 23.7504 26.7251 24.0177C27.1069 24.5436 27.2555 25.257 27.3975 25.9463L27.4125 26.0137C27.5829 26.8382 27.7113 27.6827 27.8353 28.4989C27.8787 28.781 27.9213 29.0615 27.9817 29.3571C28.0071 29.4854 28.1163 29.5866 28.2447 29.6077C28.6415 29.6721 28.9313 29.7083 29.1711 29.7083C29.9877 29.7083 30.1685 29.2611 30.5669 27.9688C30.8179 27.1609 31.0861 26.3583 31.3597 25.5399L31.6101 24.7223C31.6549 24.5767 31.7879 24.4763 31.9403 24.4725L33.0581 24.3831C33.4609 24.3434 33.7731 24.2129 33.7329 24.441C33.5731 24.9307 33.5133 25.3883 33.2675 25.8903C32.7281 26.9922 32.5427 28.1646 32.1429 29.2688C31.9771 29.7264 31.7401 30.1681 31.5115 30.595C31.3629 30.8719 31.2149 31.1471 31.0841 31.4299C30.8973 31.8312 30.8973 32.2551 31.0819 32.5934C31.2671 32.9302 31.6095 33.147 32.0457 33.2026C33.4541 33.3827 34.8649 33.5432 36.2771 33.7044C37.3135 33.8221 38.4117 33.91 39.4473 34.0351C41.0463 34.2295 42.5661 34.6128 44.1635 34.8182L46.2167 34.9353C46.3937 34.9451 46.5709 34.9646 46.7473 34.9923L48.8797 35.3583C50.2023 35.5878 51.2349 35.6434 52.2339 35.687C53.4951 35.8844 54.6347 35.9691 55.6089 36.0059C55.8495 36.0478 56.0879 36.0876 56.3187 36.1071C57.5007 36.2077 58.6783 36.2143 59.8617 36.3996C60.3699 36.7012 60.8061 37.1835 61.0691 37.8865C61.2297 38.3192 61.3337 38.7416 61.3949 39.1518C61.4083 39.6372 61.4083 40.1241 61.3957 40.6086C61.1761 41.9844 60.3093 43.1058 58.8941 43.7562C57.5499 44.018 56.2139 44.3045 54.9177 44.6294C54.0861 44.8372 53.2529 45.0966 52.4475 45.3472C51.8893 45.5213 51.3319 45.6946 50.7701 45.8536C50.0759 46.0502 49.3713 46.2219 48.6675 46.3937C47.2329 46.7441 45.7497 47.1064 44.3809 47.6802C42.4973 48.4693 40.5233 48.894 38.6141 49.305L37.9865 49.4399C37.5815 49.5285 37.2745 50.2477 37.0391 50.7999C36.9405 51.031 36.9637 51.3137 36.9875 51.5876C36.9973 51.7069 37.0069 51.8269 37.0069 51.9424V53.3698L37.0443 53.3728C37.0069 53.6053 36.9831 53.8356 36.9957 54.0629C37.0129 54.39 37.0285 54.7163 37.0449 55.0434C37.2563 59.2134 36.6869 62.4082 37.0449 67.5482C37.0665 67.8616 36.9859 68.1753 36.9567 68.4897C36.9329 68.7403 36.9133 68.9907 36.8857 69.2421C36.8215 69.8159 36.7953 70.3942 36.7781 70.9733C36.7199 73.0316 36.8953 75.117 36.9163 77.1851C36.9417 79.7002 37.2413 85.9474 37.2443 85.9902C37.2405 86.2197 37.2369 86.45 37.2339 86.6795C37.2137 88.3284 37.7531 89.2269 39.1131 89.4918C39.1131 89.4918 41.8141 90.2554 56.1967 88.933C61.1229 88.4806 65.8577 87.8415 68.2801 84.8372C70.1249 82.55 72.2267 81.6866 73.7135 78.9081C74.7439 76.9809 75.3641 74.8176 76.2517 72.6099C77.6721 69.0738 78.3887 65.5728 78.9625 61.3526C79.3899 58.2012 79.3167 54.9105 79.5041 51.7569C79.6947 48.5621 79.3443 45.9582 79.6543 42.1693C79.8407 39.8881 79.7719 37.7188 79.0771 33.6215ZM76.3357 59.4345C75.8927 62.8587 75.0379 66.7304 74.2809 70.1292C73.5397 73.4583 71.1615 75.9525 69.9815 78.6178C68.8353 81.2072 62.4985 85.9285 56.0809 86.5783C53.7101 86.819 50.9709 86.5273 48.6277 86.6743C46.6425 86.7988 44.6571 86.9227 42.6763 87.0995C42.4701 87.1176 42.2781 87.1273 42.0957 87.1273C41.3089 87.1273 40.7507 86.9502 40.3913 86.5871C39.9603 86.1512 39.7645 85.4169 39.7727 84.2752C39.7831 82.8042 39.5321 77.5397 39.5321 77.5397C39.5679 76.0041 39.5673 74.4686 39.5821 72.9324C39.5843 72.7637 39.5925 72.5949 39.5881 72.426C39.5783 72.126 39.5597 71.825 39.5471 71.5251C39.5135 70.7014 39.4783 69.877 39.4321 69.0511C39.3873 68.2552 39.3403 67.4586 39.3007 66.6627V60.2431C39.3067 60.1449 39.3111 60.0465 39.3157 59.9475C39.5631 57.391 39.3203 54.8675 39.3769 52.3456L39.4105 52.3538C39.5689 52.0289 39.8543 51.6434 40.1779 51.534C40.7877 51.3262 41.4265 51.1693 42.0443 51.0179C42.5465 50.8949 43.0665 50.7674 43.5685 50.6136C44.3269 50.3802 45.0785 50.1252 45.8303 49.8686C46.6021 49.6062 47.3979 49.3405 48.1921 49.099C48.9333 48.8912 49.6745 48.6864 50.4149 48.4771C50.8945 48.3519 51.3743 48.2296 51.8465 48.1111C52.5667 47.9288 53.2879 47.7473 54.0051 47.5537C54.7135 47.3626 55.4255 47.1389 56.1151 46.9228L56.7921 46.7112C57.0745 46.6243 57.3563 46.5311 57.6365 46.4381C57.7269 46.4082 57.8195 46.3797 57.9115 46.3496C58.3769 46.2177 58.8425 46.0847 59.3079 45.9534C59.3961 45.9287 59.4731 45.9062 59.5575 45.8821C62.3909 45.0719 63.1739 44.5866 63.3151 42.5538C63.3421 42.1631 63.3473 41.7151 63.3375 41.1969C63.3337 41.013 63.3293 40.8254 63.3233 40.6238C63.1851 36.2221 63.2179 34.7923 60.5273 34.2574C59.8309 34.1194 58.9619 34.0377 57.8479 33.9843C57.8315 33.9835 57.8143 33.9821 57.7971 33.9805C57.6731 33.9678 57.5497 33.9572 57.4265 33.9438C54.9323 33.6638 52.4115 33.5213 49.9195 33.2161C48.8959 33.0908 47.9005 32.8139 46.8785 32.6776C45.6001 32.5073 44.3163 32.478 43.0357 32.3288C41.6759 32.1706 40.3197 31.8877 38.9583 31.7451C37.6163 31.6055 36.3649 31.5965 35.0259 31.4413C34.6441 31.3971 34.2779 31.1194 34.1383 30.8869C34.0031 30.6626 34.0009 30.3633 34.1331 30.0213C34.3251 29.524 34.5387 29.0348 34.7541 28.5457C35.0679 27.8285 35.3945 27.0876 35.6365 26.332C35.8995 25.5128 35.8875 25.2029 36.0489 24.3735C36.1199 24.0089 36.4995 23.1553 36.4195 22.6969C36.4255 22.3849 35.9457 22.3248 35.7247 22.2859C35.3145 22.2146 35.0409 22.1246 34.7361 22.1299C33.6781 22.1471 32.0881 21.6251 31.3887 21.6251C30.2163 21.6251 30.3315 22.2529 29.6231 23.2312C29.5535 23.3264 29.4079 23.3033 29.3735 23.19C28.8229 21.3934 28.6569 21.3687 26.3003 21.2659L26.0419 21.2568C25.5801 21.2426 25.1027 21.2291 24.7239 21.0422C24.1987 20.7842 23.7937 20.6597 23.4851 20.6597C23.2497 20.6597 23.0689 20.7295 22.9315 20.8749C22.6939 21.1277 22.5989 21.6144 22.6393 22.3654C22.7057 23.5512 22.8613 24.7522 23.0129 25.9135C23.0749 26.3794 23.1347 26.846 23.1907 27.3125C23.2011 27.404 23.2415 27.4895 23.2803 27.5735L23.3237 27.6725C23.3237 27.6725 24.2785 29.5778 24.2077 29.7527C24.1375 29.9267 23.0885 29.6874 22.5759 29.6663C21.4813 29.6213 20.5347 29.5816 19.6201 29.3716C19.3301 29.3049 19.0575 29.271 18.8087 29.271C17.7245 29.271 17.1237 29.9093 17.1155 31.0674C17.1111 31.6503 17.1125 32.2324 17.1139 32.8153L17.1155 33.4701C17.1155 35.2419 17.5339 35.6846 19.3511 35.8376C20.3605 35.9223 21.3669 36.0874 22.4333 36.2615C22.8951 36.3366 23.3687 36.4109 23.8373 36.446C23.8701 36.4504 23.7185 36.1894 23.9337 36.4611C24.1503 36.7325 23.7409 37.05 23.6363 37.3327C23.4159 37.9351 23.2081 38.5037 23.1963 39.0828C23.0925 43.9256 22.9117 49.0783 21.9575 54.1432C21.6249 55.912 21.5645 57.7611 21.5055 59.5495C21.4779 60.3814 21.4501 61.2127 21.3971 62.0393L21.2103 64.865C21.2095 64.8801 21.2087 64.8958 21.2081 64.9108C21.1043 66.4627 21.0019 68.0134 20.9041 69.5653C20.8585 70.2832 20.8361 70.9988 20.8145 71.7144C20.7615 73.4398 20.7061 75.2236 20.3065 77.0006C20.1809 77.5586 20.0921 78.1272 20.0203 78.6997C19.9575 79.4625 19.8947 80.2247 19.8291 80.9877C19.8291 80.9877 19.4145 82.89 19.3733 83.3416C19.2613 84.5814 18.9623 84.8306 18.5163 84.8306C18.2511 84.8306 17.8977 84.7324 17.4673 84.5389C16.2577 83.9957 15.0135 83.5299 13.9973 82.8856C11.2163 81.1198 9.28787 78.8378 7.91227 76.2551C7.29647 75.0983 7.03287 73.3783 6.68907 72.0469C6.25947 70.3862 5.65507 69.1993 5.30607 67.5311C4.67987 64.5434 4.04787 61.8189 3.67947 58.8108C3.37907 56.3533 3.29927 53.6146 3.16987 51.1467C2.94567 46.8582 3.48067 42.7392 3.77507 38.4288C4.00147 35.1238 3.88107 31.6319 4.41247 28.3214C4.72107 26.3981 5.36967 24.7184 5.78127 22.7945C6.07867 21.4082 6.11447 19.7774 6.46487 18.3911C6.96387 16.4138 8.03467 14.5888 8.98207 13.0112C10.3135 10.7952 11.7355 9.02488 13.9031 7.64103C16.0715 6.25558 18.6917 5.40704 21.6401 4.90687C24.3359 4.44927 27.0849 3.67964 29.7613 3.42002C33.2319 3.0833 36.5719 3.21682 39.9573 3.21682C42.6367 3.21682 44.8723 3.64069 47.5315 3.85152C49.4771 4.00673 51.8547 3.90031 53.7787 4.16656C55.5039 4.40671 57.3913 4.43441 59.0911 4.76291C60.9119 5.11549 62.4079 5.89938 63.9201 6.60215C65.4339 7.30431 66.4397 8.50985 67.6411 9.55838C68.5505 10.3521 69.7221 10.9131 70.4513 11.9026C71.3763 13.1583 72.1571 14.5723 72.7907 16.1423C73.2913 17.3808 74.0601 18.6275 74.3769 20.0609C74.6161 21.1418 74.4807 22.312 74.6893 23.393C75.3229 26.6802 75.5171 30.0167 76.1605 33.2625C76.9563 37.2779 76.3375 40.4016 76.3831 43.8957C76.4529 49.2355 77.0209 54.1294 76.3357 59.4345Z" fill="white"/>
<path d="M38.1287 41.7618C38.9783 41.8188 40.2985 40.494 40.3411 39.5415C40.3933 38.3614 39.5469 37.5109 38.3051 37.4966C36.7427 37.4786 36.2429 37.9213 36.2219 39.3419C36.2047 40.4978 37.1493 41.6957 38.1287 41.7618Z" fill="white"/>
</g>
<defs>
<clipPath id="clip0_18_42">
<rect width="80" height="90" fill="white"/>
</clipPath>
</defs>
</svg>
