<svg width="18" height="17" viewBox="0 0 18 17" fill="none" xmlns="http://www.w3.org/2000/svg">
<path d="M2.06197 9.68452e-06C3.19882 9.68452e-06 4.12014 0.912732 4.12014 2.03395C4.12014 3.15667 3.19882 4.07014 2.06197 4.07014C0.921324 4.07014 0 3.15667 0 2.03395C0 0.912732 0.921324 9.68452e-06 2.06197 9.68452e-06ZM0.283073 5.6106H3.83935V16.9H0.283073V5.6106Z" fill="#262357"/>
<path d="M6.06744 5.6106H9.47345V7.1548H9.51974C9.99482 6.26608 11.1529 5.33085 12.8825 5.33085C16.4775 5.33085 17.14 7.66778 17.14 10.7082V16.9H13.5921V11.4117C13.5921 10.1007 13.5663 8.41776 11.7464 8.41776C9.89768 8.41776 9.61612 9.84347 9.61612 11.3157V16.9H6.06744V5.6106Z" fill="#262357"/>
</svg>
