<svg width="245" height="72" viewBox="0 0 245 72" fill="none" xmlns="http://www.w3.org/2000/svg">
<g clip-path="url(#clip0_521_502)">
<path d="M244.078 23.9104C243.096 23.2712 242.441 23.9425 241.823 24.6724C239.026 27.9816 236.198 31.2659 233.402 34.5763C232.061 36.163 231.928 36.1702 230.655 34.4117C228.337 31.2106 226.027 28.003 223.688 24.8185C223.057 23.9608 222.239 23.1733 221.12 23.9402C219.922 24.762 220.601 25.7762 221.18 26.6071C223.257 29.5879 225.254 32.6375 227.536 35.4565C229.405 37.7641 230.626 40.12 230.07 42.8216C230.142 44.4782 229.971 45.8251 230.327 47.1396C230.526 47.8799 230.911 48.4071 231.785 48.3671C232.573 48.33 232.905 47.8657 232.993 47.1469C233.094 46.3295 233.354 45.4976 233.275 44.6973C232.894 40.8591 234.312 37.8496 236.935 35.0653C239.501 32.3389 242.127 29.6126 244.156 26.4205C244.667 25.6156 245.21 24.6477 244.078 23.9104Z" fill="#333333"/>
<path d="M180.878 26.7444C183.423 26.7866 185.982 26.4879 188.511 26.94C193.631 27.8565 197.075 31.8258 196.877 36.5257C196.695 40.8822 192.381 44.9417 187.469 45.2302C185.054 45.3723 182.626 45.2412 180.203 45.2836C179.074 45.3032 178.568 44.843 178.587 43.7064C178.618 41.7975 178.596 39.8886 178.596 37.9807C178.735 35.1129 178.432 32.2619 178.323 29.4038C178.231 26.9862 178.539 26.7052 180.878 26.7444ZM177.807 48.3951C179.466 48.4507 181.127 48.4075 182.781 48.4075C187.817 48.9243 192.326 47.9682 196.316 44.5044C202.917 38.7734 200.425 27.604 191.962 24.6449C187.174 22.9708 182.258 23.4928 177.358 23.7308C175.946 23.7986 175.364 24.6224 175.369 26.0061C175.386 32.6358 175.398 39.2653 175.361 45.8954C175.352 47.6198 176.24 48.3438 177.807 48.3951Z" fill="#333333"/>
<path d="M133.681 45.1577C138.52 49.6485 146.354 49.7878 152.495 45.597C153.93 44.6191 154.805 43.3722 154.886 41.6774C154.99 39.514 154.995 37.3438 154.968 35.1763C154.954 33.9439 154.365 33.2004 153.004 33.0531C149.236 32.6444 145.478 32.9546 141.715 33.0853C140.865 33.1149 140.161 33.4566 140.124 34.3949C140.086 35.3381 140.76 35.6551 141.608 35.8157C143.197 36.1184 144.796 35.9218 146.387 36.0042C147.666 36.0021 148.944 35.9827 150.222 36.0103C150.964 36.0259 151.586 36.2079 151.719 37.1377C152.339 41.4765 151.267 43.3185 147.134 44.8506C146.419 45.1164 145.671 45.3101 144.922 45.4684C139.716 46.5753 133.546 42.566 132.846 37.636C132.059 32.0958 136.273 27.1935 142.131 26.7284C145.365 26.4718 148.372 26.8683 150.975 29.0028C151.724 29.6173 152.658 29.8358 153.415 29.0819C154.294 28.2078 153.545 27.4149 153.003 26.7396C152.321 25.888 151.472 25.1982 150.423 24.8121C147.385 23.6951 144.254 23.0072 141.03 23.5602C135.824 24.453 132.025 27.4066 130.396 32.3911C128.838 37.1491 129.865 41.6136 133.681 45.1577Z" fill="#333333"/>
<path d="M104.974 43.0656C103.568 44.4124 101.81 44.9571 99.9309 45.0673C98.3435 45.1617 96.7456 45.0869 95.153 45.0869V45.1617C93.4317 45.1617 91.711 45.1495 89.9899 45.166C88.8387 45.1774 88.1903 44.7429 88.2048 43.4907C88.2275 41.3925 88.2142 39.2919 88.1746 37.1936C88.1519 36.0198 88.754 35.6267 89.8328 35.6419C93.0834 35.6862 96.3372 35.6276 99.5827 35.7717C101.444 35.8552 103.201 36.4987 104.698 37.6879C106.706 39.2826 106.813 41.3037 104.974 43.0656ZM88.1231 30.8988C87.8831 26.5617 87.8551 26.5322 92.2293 26.5741C95.2843 26.604 98.3386 26.7501 101.394 26.813C102.81 26.8429 104.018 27.3462 104.344 28.7474C104.69 30.221 103.573 31.0396 102.398 31.6758C99.9458 33.0042 97.2753 32.3317 95.1611 32.5057C93.0398 32.5057 91.3831 32.483 89.7261 32.5129C88.5906 32.5335 88.185 32.0115 88.1231 30.8988ZM105.516 33.0247C107.237 31.4822 107.872 29.5486 107.139 27.3133C106.235 24.553 103.924 23.7881 101.386 23.7211C96.7902 23.5994 92.1897 23.6304 87.5913 23.6574C85.5538 23.6695 84.9735 24.2698 84.9447 26.3144C84.9013 29.4407 84.9331 32.5665 84.9331 35.6925H84.9415C84.9415 38.8183 84.8981 41.9455 84.9549 45.0701C85.0027 47.6394 85.6368 48.2416 88.1437 48.3176C92.5558 48.4527 96.962 48.3084 101.358 47.948C104.849 47.6628 108.379 44.9661 109.098 41.9782C109.902 38.6332 108.399 36.2978 105.55 34.6885C104.516 34.1047 104.79 33.6755 105.516 33.0247Z" fill="#333333"/>
<path d="M30.7517 33.3936C31.4414 33.4394 32.5134 32.3727 32.5481 31.6058C32.5907 30.6557 31.9032 29.9708 30.895 29.9594C29.6261 29.945 29.2202 30.3012 29.2033 31.4453C29.1893 32.3759 29.9562 33.3406 30.7517 33.3936Z" fill="#333333"/>
<path d="M61.7754 47.6223C61.4155 50.3794 60.7214 53.4967 60.107 56.2332C59.5053 58.9137 57.574 60.9221 56.6161 63.0679C55.6853 65.1531 50.54 68.9545 45.3288 69.4777C43.4036 69.6712 41.1795 69.4364 39.2769 69.5548C37.665 69.655 36.0528 69.7547 34.4445 69.8974C34.277 69.9119 34.121 69.9197 33.9731 69.9197C33.3342 69.9197 32.8809 69.777 32.5892 69.4849C32.2389 69.1339 32.08 68.5425 32.0867 67.6231C32.0954 66.4388 31.8913 62.2001 31.8913 62.2001C31.9205 60.9639 31.9199 59.7273 31.9321 58.4906C31.9338 58.3547 31.9405 58.2187 31.937 58.0828C31.9292 57.841 31.914 57.599 31.9036 57.3573C31.8762 56.694 31.8477 56.0303 31.81 55.3654C31.7736 54.7245 31.7355 54.0831 31.7035 53.4422V48.2733C31.7082 48.1942 31.712 48.115 31.7154 48.0354C31.9163 45.9771 31.7192 43.9453 31.7653 41.9146L31.7926 41.9212C31.9213 41.6598 32.153 41.3494 32.4157 41.2613C32.9107 41.0939 33.4295 40.9676 33.9311 40.8456C34.3388 40.7465 34.7612 40.6439 35.1688 40.5201C35.7847 40.3322 36.3949 40.1267 37.0055 39.9203C37.632 39.7087 38.2782 39.4952 38.9231 39.3007C39.5252 39.1331 40.127 38.9685 40.7282 38.7998C41.1174 38.6989 41.507 38.6007 41.8905 38.505C42.4754 38.3584 43.061 38.2122 43.6433 38.0564C44.2186 37.9024 44.7966 37.7224 45.3568 37.5485L45.9064 37.3781C46.1355 37.308 46.3644 37.2332 46.5918 37.1584C46.6652 37.1341 46.7406 37.1111 46.8151 37.0871C47.1931 36.9807 47.5712 36.8738 47.9492 36.768C48.0209 36.7483 48.0832 36.73 48.1518 36.7109C50.4523 36.0585 51.0882 35.6677 51.2029 34.0309C51.2247 33.7161 51.2291 33.3555 51.2212 32.9382C51.218 32.7904 51.2146 32.6393 51.2095 32.4768C51.0975 28.9327 51.124 27.7814 48.9394 27.3507C48.3737 27.2397 47.6682 27.1739 46.7637 27.1309C46.7502 27.1305 46.7362 27.129 46.7222 27.1278C46.6216 27.1176 46.5217 27.1092 46.4215 27.0982C44.3962 26.8731 42.3494 26.7583 40.3258 26.5125C39.4946 26.4116 38.6866 26.1887 37.8565 26.0789C36.8186 25.9417 35.7762 25.9179 34.7362 25.798C33.6321 25.6704 32.5309 25.4429 31.4255 25.3281C30.336 25.2156 29.3195 25.2084 28.2323 25.0835C27.9223 25.0478 27.625 24.8244 27.5117 24.6371C27.4017 24.4566 27.3999 24.2154 27.5073 23.94C27.6634 23.5397 27.8366 23.1458 28.0116 22.7519C28.2664 22.1745 28.5314 21.5778 28.7281 20.9696C28.9416 20.3102 28.932 20.0607 29.063 19.3925C29.1207 19.0993 29.4287 18.4117 29.3637 18.0427C29.3688 17.7915 28.9792 17.7432 28.7995 17.7118C28.4667 17.6543 28.2445 17.5819 27.9971 17.5862C27.1379 17.6001 25.8469 17.1796 25.2789 17.1796C24.327 17.1796 24.4205 17.685 23.8451 18.4729C23.789 18.5494 23.6705 18.5309 23.6425 18.4396C23.1956 16.9929 23.0608 16.9732 21.1473 16.8902L20.9373 16.883C20.5623 16.8717 20.1749 16.8607 19.867 16.7102C19.4406 16.5024 19.1118 16.4022 18.8611 16.4022C18.6701 16.4022 18.5234 16.4584 18.4116 16.5757C18.2185 16.7793 18.1417 17.1712 18.1743 17.7758C18.2285 18.7309 18.3545 19.6977 18.4777 20.6325C18.5281 21.0077 18.5767 21.3833 18.6221 21.7591C18.6305 21.8328 18.6634 21.9016 18.6949 21.9693L18.7301 22.0491C18.7301 22.0491 19.5054 23.5832 19.4478 23.7238C19.3908 23.8641 18.5391 23.6713 18.1228 23.6542C17.2338 23.618 16.4652 23.5861 15.7227 23.4171C15.4872 23.3633 15.266 23.3359 15.0638 23.3359C14.1834 23.3359 13.6957 23.8502 13.6891 24.7826C13.6853 25.2519 13.6867 25.7206 13.6878 26.1898L13.6891 26.7171C13.6891 28.1437 14.0287 28.5003 15.5044 28.6234C16.324 28.6915 17.1413 28.8247 18.0068 28.9646C18.3819 29.0249 18.7665 29.0848 19.1471 29.1133C19.1736 29.1168 19.0504 28.9067 19.2251 29.1252C19.4012 29.344 19.0688 29.5993 18.9837 29.8272C18.8046 30.3121 18.6361 30.7698 18.6265 31.2362C18.542 35.1355 18.3953 39.2842 17.6206 43.3623C17.3503 44.7867 17.3014 46.2754 17.2533 47.7154C17.231 48.3852 17.2086 49.0545 17.1654 49.7199L17.0138 51.9952C17.0132 52.0072 17.0126 52.0199 17.0119 52.0321C16.9276 53.2816 16.8446 54.53 16.7651 55.7799C16.7278 56.3578 16.7098 56.9341 16.6924 57.5103C16.6492 58.8993 16.6041 60.3355 16.2797 61.7665C16.1779 62.2157 16.1057 62.6737 16.0471 63.1346C15.9961 63.7488 15.9455 64.3624 15.8919 64.9766C15.8919 64.9766 15.5554 66.5085 15.5218 66.8719C15.4307 67.8704 15.1881 68.0708 14.826 68.0708C14.6105 68.0708 14.3238 67.9919 13.9741 67.836C12.9919 67.3986 11.9817 67.0235 11.1565 66.5047C8.89831 65.0829 7.33248 63.2455 6.21559 61.1662C5.71568 60.2346 5.50138 58.8496 5.22245 57.7778C4.87365 56.4404 4.38277 55.4852 4.09946 54.1417C3.59111 51.7362 3.07779 49.5422 2.77849 47.1203C2.53479 45.1418 2.46986 42.9365 2.36474 40.9493C2.18278 37.4964 2.61718 34.1799 2.85622 30.7095C3.03995 28.0484 2.9424 25.2369 3.37361 22.5714C3.62429 21.0227 4.151 19.6705 4.48525 18.1213C4.72661 17.0051 4.75573 15.692 5.04048 14.5759C5.44578 12.9837 6.31517 11.5144 7.0844 10.244C8.16547 8.45996 9.32021 7.03447 11.0803 5.92029C12.8409 4.80465 14.9687 4.12147 17.3625 3.71857C19.5515 3.35018 21.7838 2.73047 23.9569 2.52148C26.7751 2.25048 29.4869 2.35773 32.236 2.35773C34.4116 2.35773 36.227 2.69918 38.3862 2.86873C39.966 2.99395 41.8966 2.90815 43.4589 3.12235C44.8597 3.31568 46.3924 3.338 47.7725 3.60263C49.2513 3.88639 50.4657 4.51769 51.6937 5.08349C52.923 5.64898 53.7394 6.61969 54.7151 7.46403C55.4535 8.10286 56.4048 8.55474 56.997 9.35154C57.7482 10.3625 58.3819 11.5011 58.8964 12.7651C59.3031 13.7623 59.9275 14.7662 60.1845 15.9204C60.3787 16.7905 60.269 17.7329 60.4381 18.6033C60.9526 21.2499 61.1104 23.9366 61.6327 26.5498C62.2791 29.7831 61.7765 32.2979 61.8135 35.1115C61.8707 39.4105 62.3318 43.3511 61.7754 47.6223ZM64.0013 26.8386C63.6574 24.8305 63.7146 22.8711 63.133 20.7674C62.5781 18.756 62.7062 16.7703 61.8167 14.6153C60.565 11.582 59.5669 9.0585 57.7795 6.84607C56.3447 5.07044 54.5605 3.60264 51.8495 2.65134C50.6514 2.23107 49.7893 1.63367 48.0552 1.54122C46.1152 1.4386 44.212 0.927018 42.2777 0.638907C38.5797 0.0887694 35.6391 0.265581 32.3088 0.0438443C29.5035 -0.14253 27.452 0.323547 24.9816 0.3563C21.8627 0.398039 20.0436 0.875137 17.5713 1.2876C15.9243 1.56237 14.5311 1.51774 13.0071 2.50758C11.2864 3.62495 9.49053 4.32755 7.97739 5.46348C5.57127 7.27127 4.44943 9.35995 3.39311 12.0106C2.98374 13.0376 2.64572 14.1339 2.3793 15.3001C1.87997 17.4848 1.78855 19.7453 1.11627 21.8497C0.296366 24.4153 0.755812 26.4412 0.567724 28.6632C0.279479 32.0672 0.12371 35.325 0.0162733 38.7056C-0.0917461 42.1006 0.357801 45.0175 0.778816 48.1501C1.22167 51.4504 1.18847 54.6118 2.66318 57.9897C3.31741 59.4865 3.91691 61.0899 4.64044 62.4114C5.77012 64.4739 6.9988 66.1508 8.91667 67.5594C10.3879 68.6397 12.0891 69.5258 14.0166 70.2127C14.6688 70.4458 15.8203 70.4553 15.8203 70.4553C16.9852 70.5507 17.3803 69.8489 17.5658 67.9085C17.5969 67.5858 17.62 67.2627 17.6496 66.9404C17.6545 66.8907 17.9821 63.8992 18.1569 62.4319C18.2914 61.3111 18.429 60.1526 18.5359 59.0106C18.599 58.3408 18.6081 57.6552 18.6166 56.992C18.6259 56.3536 18.6343 55.6935 18.6913 55.0489C18.7616 54.257 18.8812 53.455 18.9971 52.6802C19.09 52.0574 19.1829 51.4341 19.253 50.8089C19.3654 49.802 19.4472 48.7759 19.5261 47.7829C19.5613 47.3499 19.5952 46.9174 19.6324 46.4849L19.6449 46.3545C19.6536 46.2626 19.6633 46.1717 19.6676 46.0792C19.7137 45.0603 19.7328 44.0195 19.7512 43.0134C19.7937 40.685 19.8374 38.2775 20.222 35.9666C20.4253 34.7477 20.489 33.5109 20.5507 32.3139C20.6139 31.0828 20.6794 29.8101 20.8977 28.5707C20.9502 28.2742 20.8765 27.9915 20.6862 27.7525C20.3894 27.3803 19.8312 27.1467 19.1529 27.1098C18.8035 27.091 18.4518 27.091 18.0998 27.0904C17.8377 27.0898 17.5757 27.0892 17.3134 27.0814C16.5042 27.0559 16.0861 27.004 15.8997 26.7745C15.7189 26.5504 15.7536 26.1536 15.8605 25.4285L16.8306 25.5111L20.4908 25.7936C20.737 25.8142 21.1333 25.9713 21.2614 25.8528C21.3893 25.7351 21.1211 24.8067 21.1211 24.8067C21.0131 23.9992 20.9167 23.2824 20.8261 22.5641C20.8058 22.3975 20.7941 22.2279 20.7827 22.0592C20.7639 21.7922 20.7461 21.5163 20.6866 21.2528C20.6413 21.0465 20.5623 20.8441 20.4858 20.6491C20.3932 20.4116 20.2971 20.1659 20.264 19.9175C20.2197 19.5993 20.2517 19.2633 20.2826 18.9383C20.2947 18.8123 20.1941 18.6021 20.2846 18.5282C20.376 18.4535 20.5545 18.6323 20.6957 18.6792C21.0096 18.7833 21.3343 18.8909 21.4918 19.1056C21.8018 19.5291 21.9227 20.1035 22.038 20.6586L22.0499 20.7128C22.1885 21.3769 22.2927 22.0569 22.3935 22.7139C22.4287 22.9412 22.463 23.167 22.5123 23.405C22.5329 23.5081 22.6214 23.5899 22.7259 23.6067C23.048 23.6586 23.2836 23.6875 23.4784 23.6875C24.1413 23.6875 24.288 23.3275 24.6115 22.2871C24.8153 21.6366 25.0331 20.9902 25.2552 20.3311L25.4585 19.6728C25.4949 19.5557 25.6029 19.4749 25.7267 19.4717L26.6342 19.3999C26.9615 19.3679 27.215 19.2627 27.1821 19.4465C27.0523 19.8406 27.0036 20.2093 26.8042 20.6134C26.3663 21.5007 26.2158 22.4447 25.8912 23.3336C25.7563 23.702 25.5641 24.0578 25.3784 24.4014C25.2575 24.6244 25.1377 24.8461 25.0314 25.0737C24.8796 25.3968 24.8796 25.7383 25.0295 26.0104C25.1801 26.2817 25.4578 26.4562 25.8122 26.5009C26.9559 26.6457 28.1012 26.7751 29.2479 26.9049C30.0897 26.9996 30.9815 27.0704 31.8223 27.1713C33.1206 27.3278 34.3547 27.6365 35.6519 27.802L37.3191 27.8962C37.4629 27.904 37.6068 27.9197 37.7497 27.942L39.4812 28.2368C40.5553 28.4217 41.3938 28.4664 42.205 28.5014C43.229 28.6603 44.1542 28.7284 44.9454 28.7579C45.1407 28.7918 45.3343 28.824 45.5219 28.8397C46.4815 28.9206 47.4376 28.9261 48.3988 29.0751C48.8113 29.3179 49.1657 29.7064 49.3791 30.2721C49.5095 30.6208 49.594 30.9609 49.6438 31.2912C49.6546 31.682 49.6546 32.0738 49.6444 32.464C49.4659 33.5718 48.7621 34.4747 47.6129 34.9985C46.5217 35.2091 45.4368 35.4399 44.3843 35.7013C43.7087 35.8688 43.0325 36.0779 42.3785 36.2796C41.9252 36.4196 41.4725 36.5593 41.0162 36.6871C40.4528 36.8453 39.8807 36.9836 39.3091 37.1219C38.1442 37.4043 36.9399 37.6958 35.8283 38.1578C34.2988 38.7931 32.6961 39.1352 31.1456 39.4661L30.6362 39.5749C30.3074 39.6461 30.0579 40.2253 29.8668 40.67C29.7868 40.8557 29.8054 41.0836 29.8249 41.3041C29.8329 41.4001 29.8407 41.4967 29.8407 41.5896V42.7392L29.871 42.7415C29.8407 42.9287 29.8215 43.1142 29.8316 43.2971C29.8456 43.5606 29.8585 43.8232 29.8716 44.0867C30.0433 47.4441 29.581 50.0165 29.8716 54.155C29.8893 54.4075 29.8238 54.6598 29.8003 54.9129C29.7806 55.1147 29.765 55.3164 29.7425 55.5187C29.6902 55.9807 29.6692 56.4465 29.6552 56.913C29.6078 58.5703 29.7504 60.2491 29.7673 61.9145C29.788 63.9394 30.0313 68.9695 30.0337 69.0041C30.0305 69.189 30.0277 69.3742 30.0253 69.5591C30.0087 70.8866 30.4469 71.6101 31.5509 71.8234C31.5509 71.8234 33.7443 72.4382 45.4228 71.3736C49.4228 71.0092 53.2675 70.4947 55.2346 68.0756C56.7325 66.2343 58.439 65.5389 59.6465 63.3018C60.4832 61.7503 60.9867 60.0082 61.7076 58.2308C62.8609 55.3836 63.4425 52.5649 63.9087 49.1666C64.2558 46.6293 64.1961 43.9798 64.3483 41.4406C64.5033 38.8682 64.2185 36.7718 64.4704 33.721C64.6214 31.8843 64.5655 30.1376 64.0013 26.8386Z" fill="#333333"/>
</g>
<defs>
<clipPath id="clip0_521_502">
<rect width="244.8" height="72" fill="white"/>
</clipPath>
</defs>
</svg>
