<svg width="32" height="27" viewBox="0 0 32 27" fill="none" xmlns="http://www.w3.org/2000/svg">
<path d="M32 3.11933C30.8222 3.66521 29.5526 4.02393 28.2371 4.1955C29.5832 3.36887 30.6233 2.05876 31.1128 0.483496C29.8432 1.26333 28.4359 1.80921 26.9522 2.12114C25.7438 0.779832 24.0459 0 22.1185 0C18.5239 0 15.587 2.99455 15.587 6.69096C15.587 7.22124 15.6482 7.73593 15.7553 8.21943C10.3098 7.93869 5.4608 5.27166 2.23327 1.23213C1.6673 2.21472 1.34608 3.36887 1.34608 4.58541C1.34608 6.90931 2.49331 8.96807 4.26769 10.1378C3.18164 10.1378 2.17208 9.82588 1.2849 9.35798V9.40477C1.2849 12.6489 3.54876 15.3627 6.54685 15.971C5.58429 16.2395 4.57376 16.2769 3.59465 16.0801C4.01011 17.4097 4.82377 18.5731 5.92125 19.4068C7.01873 20.2405 8.34485 20.7025 9.71319 20.7279C7.3937 22.6002 4.51854 23.6122 1.56023 23.5977C1.04015 23.5977 0.520077 23.5665 0 23.5041C2.90631 25.4069 6.36329 26.5143 10.065 26.5143C22.1185 26.5143 28.7419 16.3141 28.7419 7.47079C28.7419 7.17445 28.7419 6.89371 28.7266 6.59738C30.0115 5.66158 31.1128 4.47624 32 3.11933Z" fill="#A98DE2"/>
</svg>
